<svg width="11" height="24" viewBox="0 0 11 24" fill="none" xmlns="http://www.w3.org/2000/svg">
<path d="M10.6918 1.78082H9.49066C9.32076 1.78082 9.18247 1.6372 9.18247 1.46076V0.320055C9.18247 0.143614 9.04418 0 8.87428 0H8.51078C8.34088 0 8.20259 0.143614 8.20259 0.320055V2.85177C8.20259 3.02821 8.0643 3.17182 7.8944 3.17182H7.42816C7.25826 3.17182 7.11997 3.02821 7.11997 2.85177V0.320055C7.11997 0.143614 6.98168 0 6.81178 0H6.41271C6.24282 0 6.10453 0.143614 6.10453 0.320055V2.85177C6.10453 3.02821 5.96624 3.17182 5.79634 3.17182H5.50395H5.20366C5.03376 3.17182 4.89547 3.02821 4.89547 2.85177V0.320055C4.89547 0.143614 4.75718 0 4.58728 0H4.18822C4.01832 0 3.88003 0.143614 3.88003 0.320055V2.85177C3.88003 3.02821 3.74174 3.17182 3.57184 3.17182H3.1056C2.9357 3.17182 2.79741 3.02821 2.79741 2.85177V0.320055C2.79741 0.143614 2.65912 0 2.48922 0H2.12572C1.95582 0 1.81753 0.143614 1.81753 0.320055V1.45666C1.81753 1.6331 1.67924 1.77671 1.50934 1.77671H0.30819C0.13829 1.77671 0 1.92033 0 2.09677V6.0277C0 6.20414 0.13829 6.34775 0.30819 6.34775H5.50395H10.6918C10.8617 6.34775 11 6.20414 11 6.0277V2.09677C11 1.92033 10.8617 1.78082 10.6918 1.78082Z" fill="#FAFAFA"/>
<path d="M10.842 7.06592H5.504H0.165996C0.165996 7.06592 0.114631 8.19021 0.651987 8.96163C1.18934 9.73304 1.3948 9.78638 1.3948 9.78638V20.3072C1.3948 20.3072 1.44617 24.0001 5.50005 24.0001H5.504H5.50795C9.56578 24.0001 9.61319 20.3072 9.61319 20.3072V9.78638C9.61319 9.78638 9.81865 9.73304 10.356 8.96163C10.8934 8.19021 10.842 7.06592 10.842 7.06592ZM7.64552 17.004C7.64552 18.2309 6.68934 19.2239 5.50795 19.2239C4.32656 19.2239 3.37038 18.2309 3.37038 17.004V13.6517C3.37038 12.4248 4.32656 11.4318 5.50795 11.4318C6.68934 11.4318 7.64552 12.4248 7.64552 13.6517V17.004Z" fill="#FAFAFA"/>
<path d="M5.50395 14.7884C5.00611 14.7884 4.59519 14.4355 4.48456 13.9678C4.47665 14.0252 4.46875 14.0868 4.46875 14.1483V16.5939C4.46875 17.1888 4.93103 17.6689 5.50395 17.6689C6.07687 17.6689 6.53915 17.1888 6.53915 16.5939V14.1483C6.53915 14.0868 6.53125 14.0252 6.52335 13.9678C6.41272 14.4396 6.0018 14.7884 5.50395 14.7884Z" fill="#FAFAFA"/>
</svg>
