<svg width="24" height="24" viewBox="0 0 24 24" fill="none" xmlns="http://www.w3.org/2000/svg">
<path d="M21.75 7.998C21.75 8.408 21.41 8.748 21 8.748H3C2.59 8.748 2.25 8.408 2.25 7.998C2.25 7.588 2.59 7.248 3 7.248H4.02L4.4 5.438C4.76 3.688 5.51 2.078 8.49 2.078H15.51C18.49 2.078 19.24 3.688 19.6 5.438L19.98 7.248H21C21.41 7.248 21.75 7.588 21.75 7.998ZM22.182 13.66C22.032 12.01 21.592 10.25 18.382 10.25H5.621C2.411 10.25 1.981 12.01 1.821 13.66L1.261 19.75C1.191 20.51 1.441 21.27 1.961 21.84C2.491 22.42 3.241 22.75 4.041 22.75H5.921C7.541 22.75 7.851 21.82 8.051 21.21L8.251 20.61C8.481 19.92 8.541 19.75 9.441 19.75H14.561C15.461 19.75 15.491 19.85 15.751 20.61L15.951 21.21C16.151 21.82 16.461 22.75 18.081 22.75H19.961C20.751 22.75 21.511 22.42 22.041 21.84C22.561 21.27 22.811 20.51 22.741 19.75L22.182 13.66ZM9.002 15.75H6.002C5.592 15.75 5.252 15.41 5.252 15C5.252 14.59 5.592 14.25 6.002 14.25H9.002C9.412 14.25 9.752 14.59 9.752 15C9.752 15.41 9.412 15.75 9.002 15.75ZM18.002 15.75H15.002C14.592 15.75 14.252 15.41 14.252 15C14.252 14.59 14.592 14.25 15.002 14.25H18.002C18.412 14.25 18.752 14.59 18.752 15C18.752 15.41 18.412 15.75 18.002 15.75Z" fill="#F8F8F8"/>
</svg>
