<svg width="80" height="80" viewBox="0 0 80 80" fill="none" xmlns="http://www.w3.org/2000/svg">
<path d="M38.3996 0C17.1934 0 0 17.91 0 40C0 62.09 17.1934 80 38.3996 80C59.6057 80 76.7991 62.09 76.7991 40C76.7991 32.7354 74.9111 25.9438 71.6617 20.0716L35.6684 57.5586C35.07 58.1819 34.2571 58.5352 33.4059 58.5352C32.5579 58.5352 31.7418 58.1853 31.1434 57.5586L16.8936 42.7148C15.6424 41.4115 15.6424 39.3046 16.8936 38.0013C18.1447 36.698 20.1673 36.698 21.4185 38.0013L33.4059 50.4883L67.968 14.4857C60.9249 5.63568 50.297 0 38.3996 0ZM67.968 14.4857C69.3493 16.2209 70.5712 18.1002 71.6617 20.0651L79.0616 12.3568C80.3128 11.0501 80.3128 8.94656 79.0616 7.64323C77.8104 6.3399 75.7878 6.3399 74.5367 7.64323L67.968 14.4857Z" fill="#67BD50"/>
</svg>
