<svg width="23" height="24" viewBox="0 0 23 24" fill="none" xmlns="http://www.w3.org/2000/svg">
<path d="M12.1886 0.272133C15.1655 -0.34134 17.8447 0.0809785 20.2867 1.77914C21.6682 2.73936 22.3473 4.10856 22.7427 5.59334C23.3148 7.73605 22.9241 9.81208 21.6589 11.6614C19.9751 14.1153 19.3099 16.8892 18.682 19.6854C18.4401 20.7568 18.0866 21.8059 17.5098 22.7528C16.9098 23.7441 15.8958 24.2287 14.7562 23.8953C13.691 23.5841 12.9235 22.8195 12.9328 21.637C12.9421 19.1475 12.4398 16.7114 12.1142 14.2575C12.063 13.8619 11.9281 13.604 11.5002 13.5329C10.8908 13.4307 11.0257 13.933 10.942 14.2086C10.5094 15.5912 10.2489 17.027 10.2396 18.4496C10.2303 19.7077 9.91868 20.9168 9.88147 22.166C9.84891 23.1618 8.94654 23.6908 8.03021 23.8997C7.15109 24.0998 6.34174 23.9664 5.72775 23.0773C4.84863 21.8015 4.45791 20.4189 4.15092 18.9564C3.52763 15.9646 2.1415 13.2617 0.750726 10.5233C-1.40288 6.27794 1.34146 1.64133 5.62077 0.29436C8.31394 -0.554721 11.2629 0.485515 12.8816 2.73936C13.2258 3.21947 13.5933 3.54843 14.0212 3.28615C14.705 2.86828 13.9375 2.55265 13.7887 2.1659C13.4817 1.3835 12.6165 1.09454 12.1886 0.272133Z" fill="#FAFAFA"/>
</svg>
