<svg width="412" height="275" viewBox="0 0 412 275" fill="none" xmlns="http://www.w3.org/2000/svg">
<path d="M405.406 19.0098L404.582 17.6322C397.614 6.1504 385.013 -0.768221 371.729 0.0681626C370.019 0.175739 368.319 0.41008 366.643 0.769251C354.565 3.3522 344.055 12.454 339.701 24.1818C337.143 31.0636 336.423 38.9846 331.565 44.4765C325.236 51.5796 314.492 51.8071 305.046 51.5119C295.6 51.2167 284.856 51.4689 278.559 58.6027C274.617 63.0675 273.362 69.4265 273.682 75.4103C274.524 91.2524 285.563 105.416 299.604 112.457C313.644 119.499 330.169 120.132 345.537 117.033C367.062 112.691 387.535 100.779 399.834 82.372C412.134 63.9654 415.252 38.8739 405.406 19.0098Z" fill="#F5F5F5"/>
<path d="M39.3531 85.2686C61.0872 85.2686 78.7062 67.6496 78.7062 45.9155C78.7062 24.1814 61.0872 6.56244 39.3531 6.56244C17.619 6.56244 0 24.1814 0 45.9155C0 67.6496 17.619 85.2686 39.3531 85.2686Z" fill="#F5F5F5"/>
<path d="M405.492 252.195C405.492 252.281 314.745 252.355 202.835 252.355C90.926 252.355 0.153809 252.281 0.153809 252.195C0.153809 252.109 90.8953 252.035 202.823 252.035C314.751 252.035 405.492 252.109 405.492 252.195Z" fill="#263238"/>
<path d="M398.869 153.545C393.728 156.207 389.779 160.795 386.944 165.844C384.109 170.893 382.277 176.441 380.468 181.945L378.882 210.333C384.872 200.142 389.675 188.193 390.972 176.428L386.987 176.078C389.656 175.666 391.907 173.735 393.328 171.441C394.749 169.147 395.487 166.521 396.206 163.895L391.348 164.614C395.183 162.027 397.876 158.063 398.869 153.545Z" fill="#455A64"/>
<g opacity="0.3">
<path d="M398.869 153.545C393.728 156.207 389.779 160.795 386.944 165.844C384.109 170.893 382.277 176.441 380.468 181.945L378.882 210.333C384.872 200.142 389.675 188.193 390.972 176.428L386.987 176.078C389.656 175.666 391.907 173.735 393.328 171.441C394.749 169.147 395.487 166.521 396.206 163.895L391.348 164.614C395.183 162.027 397.876 158.063 398.869 153.545Z" fill="black"/>
</g>
<path d="M377.996 216.981C377.996 216.981 365.001 201.428 365.18 186.582H370.426C370.426 186.582 364.725 182.83 365.174 180.733C365.623 178.636 365.789 170.684 365.789 170.684L370.586 171.884C370.586 171.884 366.988 170.082 366.539 167.234C366.09 164.387 367.591 151.189 367.591 151.189C367.591 151.189 373.439 157.339 375.235 163.637C377.031 169.934 381.76 177.283 380.376 196.477C378.992 215.671 377.996 216.981 377.996 216.981Z" fill="#455A64"/>
<path d="M384.583 218.45C384.583 218.45 398.66 209.072 401.803 197.104L397.571 195.979C397.571 195.979 402.971 194.214 403.069 192.424C403.168 190.635 404.785 184.214 404.785 184.214L400.665 184.128C400.665 184.128 403.949 183.47 404.939 181.274C405.929 179.079 407.614 168.12 407.614 168.12C407.614 168.12 401.569 171.81 398.746 176.453C395.923 181.096 390.511 185.997 387.43 201.735C384.349 217.473 384.583 218.45 384.583 218.45Z" fill="#455A64"/>
<path d="M371.102 164.75C371.128 164.8 371.145 164.854 371.152 164.91L371.268 165.389C371.373 165.832 371.508 166.447 371.687 167.234C372.049 168.839 372.529 171.164 373.083 174.054C373.636 176.945 374.233 180.383 374.835 184.22C375.438 188.058 376.01 192.289 376.533 196.735C377.055 201.182 377.437 205.443 377.763 209.318C378.089 213.192 378.261 216.698 378.378 219.613C378.494 222.528 378.568 224.926 378.581 226.568C378.581 227.368 378.581 228.001 378.581 228.456V228.948C378.586 229.006 378.586 229.063 378.581 229.12C378.574 229.063 378.574 229.006 378.581 228.948C378.581 228.825 378.581 228.659 378.581 228.462C378.581 228.001 378.537 227.374 378.507 226.568C378.458 224.932 378.359 222.559 378.212 219.625C378.064 216.692 377.83 213.211 377.529 209.336C377.228 205.462 376.809 201.225 376.299 196.772C375.789 192.32 375.204 188.101 374.632 184.263C374.06 180.426 373.476 176.982 372.947 174.091C372.418 171.201 371.976 168.87 371.65 167.265C371.502 166.478 371.379 165.857 371.293 165.42C371.256 165.223 371.231 165.063 371.207 164.934C371.161 164.88 371.125 164.817 371.102 164.75Z" fill="#263238"/>
<path d="M376.194 226.507C376.194 226.507 364.3 213.014 360.61 204.859L363.396 203.666C361.379 203.998 359.307 203.131 357.738 201.821C356.239 200.422 354.944 198.817 353.895 197.055L357.585 196.44C354.222 195.472 351.359 193.248 349.59 190.229C353.895 190.942 357.843 193.304 361.072 196.292C363.636 198.758 365.964 201.457 368.027 204.355C369.069 205.748 369.975 207.236 370.733 208.801C372.689 212.922 376.2 221.55 376.194 226.507Z" fill="#455A64"/>
<path d="M401.975 175.973C401.975 175.973 401.975 176.022 401.925 176.115C401.876 176.207 401.815 176.348 401.747 176.508L401.027 178.009C400.412 179.306 399.496 181.188 398.408 183.544C396.224 188.218 393.346 194.749 390.505 202.092C387.664 209.435 385.401 216.206 383.869 221.156C383.101 223.616 382.498 225.621 382.098 227.005L381.618 228.598L381.483 229.01C381.471 229.059 381.453 229.107 381.428 229.151C381.422 229.102 381.422 229.053 381.428 229.004C381.428 228.887 381.489 228.751 381.532 228.585C381.637 228.192 381.772 227.651 381.951 226.974C382.32 225.578 382.891 223.567 383.629 221.089C385.105 216.169 387.319 209.355 390.179 202.024C393.039 194.693 395.942 188.15 398.174 183.495C399.293 181.164 400.222 179.294 400.892 178.015C401.218 177.4 401.476 176.902 401.661 176.539L401.87 176.158C401.896 176.092 401.931 176.029 401.975 175.973Z" fill="#263238"/>
<path d="M377.203 232.263C377.113 231.947 377.049 231.624 377.012 231.298C376.92 230.683 376.76 229.779 376.538 228.678C375.404 222.925 373.326 217.4 370.389 212.325C369.829 211.353 369.355 210.572 369.011 210.044C368.823 209.776 368.658 209.492 368.519 209.195C368.746 209.437 368.952 209.699 369.134 209.976C369.509 210.486 370.013 211.249 370.604 212.208C372.11 214.738 373.383 217.399 374.404 220.16C375.444 222.915 376.227 225.76 376.741 228.659C376.938 229.772 377.061 230.676 377.117 231.31C377.175 231.624 377.204 231.943 377.203 232.263Z" fill="#263238"/>
<path d="M392.891 229.114H366.865V234.422H392.891V229.114Z" fill="#078E85"/>
<path d="M369.349 234.422L372.166 252.281H387.891L390.511 234.422H369.349Z" fill="#078E85"/>
<path d="M391.298 234.422C391.298 234.508 386.378 234.582 380.302 234.582C374.226 234.582 369.306 234.508 369.306 234.422C369.306 234.336 374.226 234.262 380.302 234.262C386.378 234.262 391.298 234.336 391.298 234.422Z" fill="#263238"/>
<path d="M26.9978 236.365C26.9978 236.365 24.6732 220.375 24.87 211.114C25.0668 201.852 24.87 191.372 24.87 191.372H25.9401C25.9401 191.372 25.2144 209.822 26.0016 220.929C26.7887 232.036 28.8674 236.365 28.8674 236.365H27.0224" fill="#263238"/>
<path d="M33.9166 173.409C33.7457 172.847 33.4039 172.353 32.9388 171.994C32.5774 171.823 32.1825 171.734 31.7826 171.734C31.3827 171.734 30.9878 171.823 30.6264 171.994C27.3916 173.138 24.5258 179.165 23.2466 182.338L27.5515 196.797C35.245 189.62 36.5857 180.186 33.9166 173.409Z" fill="#455A64"/>
<path d="M32.6866 172.566C32.6767 172.633 32.6559 172.697 32.6251 172.757L32.416 173.286C32.2254 173.741 31.9671 174.399 31.6473 175.223C31.0323 176.865 30.2082 179.159 29.4887 181.748C28.7691 184.337 28.2587 186.717 27.9758 188.451C27.822 189.318 27.7052 190.02 27.6375 190.512C27.5945 190.739 27.5699 190.924 27.5453 191.071C27.5367 191.136 27.5223 191.2 27.5022 191.262C27.4927 191.197 27.4927 191.13 27.5022 191.065C27.5022 190.917 27.5391 190.727 27.5576 190.499C27.6129 190.007 27.7113 189.3 27.8466 188.433C28.5789 183.891 29.8165 179.446 31.5366 175.18C31.8687 174.362 32.1516 173.704 32.3607 173.255L32.6005 172.745C32.6235 172.682 32.6523 172.623 32.6866 172.566Z" fill="#263238"/>
<path d="M25.5896 200.284C23.6345 199.172 21.9991 197.574 20.8411 195.646C19.683 193.718 19.0415 191.524 18.9785 189.275C18.8186 186.065 19.8087 182.916 20.9218 179.903C20.9922 179.632 21.1527 179.394 21.3769 179.226C21.5596 179.16 21.7562 179.14 21.9485 179.169C22.1408 179.198 22.3228 179.275 22.4777 179.393C25.3989 181.059 27.1701 184.232 28.111 187.461C28.7892 189.603 29.0174 191.862 28.7814 194.097C28.4084 196.436 27.2913 198.593 25.5957 200.247" fill="#455A64"/>
<path d="M25.5895 200.284C25.5804 200.22 25.5804 200.156 25.5895 200.093C25.5895 199.945 25.5895 199.761 25.5895 199.533C25.5895 199.054 25.5895 198.359 25.528 197.498C25.4161 195.258 25.1676 193.028 24.7839 190.819C24.3349 188.224 23.7938 185.899 23.394 184.226L22.9205 182.246L22.7975 181.705C22.7869 181.64 22.7869 181.573 22.7975 181.508C22.824 181.567 22.8446 181.629 22.859 181.693C22.902 181.834 22.9512 182.012 23.0189 182.228C23.148 182.689 23.3325 183.365 23.5478 184.202C23.9783 185.868 24.5379 188.187 24.9868 190.788C25.3747 193.004 25.6089 195.244 25.6879 197.492C25.6879 198.353 25.6879 199.054 25.6879 199.54C25.6879 199.761 25.6879 199.945 25.6879 200.093C25.6621 200.16 25.6291 200.224 25.5895 200.284Z" fill="#263238"/>
<g opacity="0.3">
<path d="M25.5896 200.284C23.6345 199.172 21.9991 197.574 20.8411 195.646C19.683 193.718 19.0415 191.524 18.9785 189.275C18.8186 186.065 19.8087 182.916 20.9218 179.903C20.9922 179.632 21.1527 179.394 21.3769 179.226C21.5596 179.16 21.7562 179.14 21.9485 179.169C22.1408 179.198 22.3228 179.275 22.4777 179.393C25.3989 181.059 27.1701 184.232 28.111 187.461C28.7892 189.603 29.0174 191.862 28.7814 194.097C28.4084 196.436 27.2913 198.593 25.5957 200.247" fill="black"/>
</g>
<path d="M30.1282 224.699C34.0887 225.572 37.3481 228.389 41.198 229.723C43.7256 230.621 46.5791 230.953 48.5778 232.706C48.092 231.476 46.9419 230.67 45.8288 229.969C42.6842 228.006 39.3276 226.405 35.823 225.197C34.021 224.582 32.0715 224.053 30.245 224.582" fill="#455A64"/>
<path d="M24.4028 228.229C19.446 228.149 14.2247 223.924 9.28638 223.672C14.4523 222.005 21.8506 223.37 24.4028 228.229Z" fill="#455A64"/>
<path d="M26.3213 216.335C28.8769 215.495 31.6024 215.309 34.2485 215.794C36.881 216.28 39.4687 216.983 41.985 217.897C41.7329 216.175 40.3369 214.883 39.0269 213.74C38.0819 212.844 37.0521 212.043 35.952 211.347C34.8347 210.65 33.5421 210.285 32.2252 210.296C31.4353 210.347 30.6638 210.557 29.9568 210.913C29.2499 211.269 28.6221 211.764 28.1109 212.368C27.0961 213.459 26.4673 214.852 26.3213 216.335Z" fill="#455A64"/>
<path d="M16.168 210.855C13.0439 208.192 8.31462 208.451 4.21265 208.543C10.8053 211.687 17.0231 215.563 22.7484 220.099C22.9144 217.196 20.1101 214.225 16.168 210.855Z" fill="#455A64"/>
<g opacity="0.3">
<path d="M16.168 210.855C13.0439 208.192 8.31462 208.451 4.21265 208.543C10.8053 211.687 17.0231 215.563 22.7484 220.099C22.9144 217.196 20.1101 214.225 16.168 210.855Z" fill="black"/>
</g>
<path d="M27.7482 207.178C29.2712 206.122 30.8751 205.189 32.5451 204.386C34.1933 203.642 35.7246 202.455 37.3113 201.594C39.3715 200.48 41.1488 198.931 43.043 197.547C44.9371 196.163 47.0035 194.921 49.3158 194.552C47.4116 194.216 45.4551 194.33 43.6026 194.884C41.7585 195.438 39.9612 196.137 38.2276 196.975C35.7677 198.07 33.3077 199.195 31.3274 200.979C29.3472 202.762 27.5391 204.515 27.7482 207.178Z" fill="#455A64"/>
<path d="M41.0811 228.229C41.0249 228.214 40.971 228.191 40.9212 228.161L40.4661 227.958C40.091 227.761 39.5559 227.466 38.8795 227.128C38.5474 226.95 38.1784 226.765 37.7725 226.581C37.3666 226.396 36.9422 226.187 36.4872 225.966C35.4954 225.521 34.4664 225.165 33.4122 224.902C32.3753 224.613 31.2829 224.585 30.2327 224.822C29.7745 224.921 29.3243 225.055 28.8859 225.221C27.9525 225.599 27.113 226.176 26.4259 226.913C26.1369 227.22 25.9955 227.405 25.9832 227.398L26.0754 227.251C26.1685 227.116 26.2692 226.987 26.3767 226.863C26.7659 226.405 27.2196 226.005 27.7236 225.677C28.0708 225.438 28.4393 225.232 28.8244 225.062C29.2677 224.885 29.7242 224.743 30.1897 224.637C31.2647 224.387 32.3853 224.41 33.4491 224.705C34.5046 224.972 35.5338 225.334 36.524 225.787C36.9791 225.99 37.4096 226.193 37.8094 226.402C38.2091 226.611 38.5781 226.79 38.9102 226.974C39.5805 227.331 40.1033 227.638 40.4723 227.86L40.8843 228.112C40.9559 228.14 41.0224 228.179 41.0811 228.229Z" fill="#263238"/>
<path d="M20.7066 225.769C20.8147 225.785 20.9202 225.816 21.0202 225.861C21.2958 225.961 21.5649 226.078 21.8258 226.212C22.6923 226.653 23.4899 227.219 24.1935 227.89C24.896 228.565 25.4949 229.34 25.9709 230.191C26.113 230.447 26.2403 230.712 26.3521 230.984C26.4019 231.081 26.4372 231.184 26.4567 231.291C26.4567 231.291 26.2414 230.885 25.8417 230.258C25.344 229.438 24.7424 228.686 24.0521 228.02C23.3578 227.359 22.5829 226.789 21.7459 226.322C21.1247 225.966 20.6943 225.8 20.7066 225.769Z" fill="#263238"/>
<path d="M9.7168 210.609C9.78898 210.62 9.85933 210.641 9.92589 210.671L10.5409 210.88L11.4818 211.23C11.8447 211.366 12.2444 211.563 12.7118 211.765C15.0383 212.84 17.2101 214.222 19.1692 215.874C20.2357 216.794 21.2403 217.785 22.1765 218.838C22.9353 219.705 23.6496 220.61 24.3166 221.55C24.8824 222.349 25.3067 223.02 25.6019 223.481L25.9402 224.01C25.9844 224.069 26.0215 224.133 26.0509 224.201L25.9156 224.034C25.8295 223.918 25.7003 223.745 25.5466 223.518C25.2329 223.069 24.7902 222.411 24.2121 221.624C23.634 220.837 22.9083 219.92 22.0535 218.949C21.1173 217.905 20.1149 216.923 19.0523 216.009C17.1026 214.368 14.9537 212.979 12.6564 211.876C12.2136 211.673 11.8201 211.464 11.4265 211.317L10.504 210.948L9.91974 210.702L9.7168 210.609Z" fill="#263238"/>
<path d="M33.7811 213.543C33.6484 213.542 33.5163 213.525 33.3875 213.494L32.9324 213.408C32.7541 213.408 32.5511 213.408 32.3174 213.352C31.406 213.272 30.4881 213.395 29.6305 213.715C28.773 214.034 27.9976 214.54 27.3606 215.197C26.9811 215.566 26.6466 215.979 26.3643 216.427C26.1165 216.838 25.8966 217.266 25.7063 217.706C25.7206 217.573 25.7537 217.443 25.8047 217.319C25.932 216.979 26.0905 216.652 26.2782 216.341C26.5492 215.871 26.8754 215.436 27.2499 215.043C27.7083 214.562 28.2421 214.159 28.8304 213.85C29.9105 213.297 31.1321 213.083 32.3359 213.235C32.5634 213.266 32.7725 213.272 32.9509 213.315L33.4059 213.432C33.5347 213.455 33.6605 213.492 33.7811 213.543Z" fill="#263238"/>
<path d="M38.7688 198.082L38.5781 198.199L38.0246 198.5C37.545 198.759 36.8562 199.115 36.0136 199.638C35.1711 200.161 34.1687 200.757 33.1416 201.483C31.9951 202.283 30.9209 203.182 29.9314 204.17C29.4196 204.674 28.9789 205.245 28.6215 205.868C28.2955 206.483 28.0065 207.098 27.699 207.67C27.1872 208.691 26.7274 209.738 26.3214 210.806C26.0516 211.529 25.8277 212.269 25.6511 213.02C25.5219 213.549 25.4789 213.844 25.4604 213.844C25.4523 213.771 25.4523 213.696 25.4604 213.623C25.4604 213.481 25.5096 213.272 25.565 213.008C25.716 212.25 25.9215 211.504 26.18 210.775C26.5775 209.701 27.0353 208.65 27.5514 207.627C27.8343 207.042 28.1664 206.44 28.4677 205.812C28.8321 205.175 29.281 204.589 29.8023 204.072C30.8002 203.078 31.8848 202.174 33.0432 201.372C34.1072 200.628 35.1035 200.019 35.9521 199.527C36.8008 199.035 37.5019 198.679 37.9939 198.439L38.5658 198.168C38.6296 198.131 38.6978 198.102 38.7688 198.082Z" fill="#263238"/>
<path d="M24.8639 213.1C24.8149 212.965 24.7819 212.825 24.7655 212.682L24.5502 211.532C24.0842 209.011 23.2924 206.561 22.1948 204.244L21.709 203.186C21.6455 203.057 21.592 202.924 21.5491 202.787C21.639 202.899 21.7135 203.023 21.7705 203.156C21.9058 203.396 22.0903 203.771 22.3055 204.189C22.8853 205.339 23.3766 206.531 23.7753 207.756C24.1685 208.984 24.4686 210.24 24.6732 211.513C24.747 211.999 24.8024 212.393 24.8331 212.67C24.8585 212.812 24.8688 212.956 24.8639 213.1Z" fill="#263238"/>
<path d="M24.4765 201.815C24.3228 199.938 23.7737 198.114 22.8652 196.465C21.6423 194.191 19.9359 192.212 17.8662 190.668C15.7965 189.124 13.4136 188.053 10.8853 187.529L21.955 204.06L23.388 207.006C24.2976 205.437 24.6792 203.617 24.4765 201.815Z" fill="#455A64"/>
<path d="M40.4107 234.391H14.6243V238.96H40.4107V234.391Z" fill="#078E85"/>
<path d="M16.5493 238.056L18.7448 252.238H35.8661L38.4859 238.056H16.5493Z" fill="#078E85"/>
<path d="M40.3985 238.966C40.3985 239.016 34.5807 239.059 27.41 239.059C20.2392 239.059 14.4153 239.016 14.4153 238.966C14.4153 238.917 20.2331 238.874 27.41 238.874C34.5869 238.874 40.3985 238.917 40.3985 238.966Z" fill="#263238"/>
<path d="M353.083 133.803C353.083 133.803 348.717 133.668 346.263 136.202L349.805 142.555L356.533 141.208L357.148 139.08L358.224 135.04L353.083 133.803Z" fill="#FFBF9D"/>
<path d="M308.81 128.256C308.81 128.256 310.938 129.609 311.473 131.067C312.008 132.524 324.197 141.202 324.197 141.202L325.839 140.759L345.451 134.744L350.371 143.6L326.098 152.714C325.39 152.868 308.14 147.247 308.14 147.247L308.81 128.256Z" fill="#455A64"/>
<path d="M355.414 148.582L340.482 143.822L334.332 163.077L313.632 156.478L319.782 137.217L270.398 121.467L274.949 107.187L336.731 62.8093L359.03 69.9062L301.326 112.279L325.925 120.138L331.399 102.974L351.447 109.364L345.974 126.528L360.906 131.288L355.414 148.582Z" fill="#078E85"/>
<g opacity="0.3">
<path d="M355.414 148.582L340.482 143.822L334.332 163.077L313.632 156.478L319.782 137.217L270.398 121.467L274.949 107.187L336.731 62.8093L359.03 69.9062L301.326 112.279L325.925 120.138L331.399 102.974L351.447 109.364L345.974 126.528L360.906 131.288L355.414 148.582Z" fill="black"/>
</g>
<path d="M349.768 146.86L334.83 142.1L328.681 161.355L307.986 154.775L314.136 135.513L264.746 119.72L269.303 105.44L331.079 61.0627L353.354 68.1658L295.686 110.557L320.286 118.41L325.759 101.252L345.802 107.642L340.328 124.806L355.285 129.56L349.768 146.86Z" fill="#078E85"/>
<g opacity="0.3">
<path d="M310.981 134.48L310.784 128.459L311.289 125.495C311.289 125.495 316.977 125.655 318.189 123.589C319.088 121.89 319.831 120.114 320.409 118.281L313.33 116.645L308.14 124.757L306.572 128.73L309.032 133.92L310.981 134.48Z" fill="black"/>
</g>
<path d="M301.541 108.995C301.606 106.606 301.876 104.228 302.347 101.886C302.825 99.5278 303.882 97.3257 305.422 95.4774C305.661 95.2068 307.488 93.4603 307.814 93.6325C308.048 93.7493 306.664 95.4774 306.701 95.7542C307.013 98.2268 306.567 100.736 305.422 102.95C304.358 105.107 303.058 107.141 301.547 109.013" fill="#263238"/>
<path d="M309.308 126.196C309.929 124.64 310.446 123.41 310.446 123.41C310.446 123.41 316.073 124.941 318.49 119.72C319.652 117.199 321.633 111.805 323.373 106.904C324.273 104.361 324.183 101.573 323.121 99.0932C322.059 96.6137 320.103 94.6247 317.641 93.5218L317.131 93.2942C311.522 91.1664 306.578 94.7456 304.604 100.416L297.076 120.022L299.136 126.018C299.496 127.069 300.171 127.984 301.068 128.639C301.966 129.295 303.043 129.658 304.154 129.68C305.265 129.702 306.356 129.382 307.279 128.763C308.202 128.145 308.913 127.257 309.314 126.221L309.308 126.196Z" fill="#FFBF9D"/>
<path d="M310.446 123.41C308.021 122.316 305.96 120.551 304.505 118.324C304.505 118.324 304.468 122.894 309.923 124.763L310.446 123.41Z" fill="#FF9A6C"/>
<path d="M318.257 110.661C318.171 110.857 318.013 111.011 317.815 111.092C317.618 111.172 317.396 111.172 317.199 111.092C317.099 111.058 317.008 111.004 316.93 110.933C316.852 110.863 316.789 110.778 316.745 110.682C316.701 110.587 316.676 110.484 316.673 110.379C316.669 110.274 316.687 110.169 316.725 110.071C316.811 109.874 316.97 109.718 317.168 109.636C317.367 109.555 317.59 109.554 317.789 109.634C317.888 109.67 317.979 109.725 318.056 109.796C318.134 109.867 318.196 109.954 318.24 110.049C318.283 110.145 318.307 110.249 318.31 110.354C318.313 110.459 318.295 110.563 318.257 110.661Z" fill="#263238"/>
<path d="M321.27 108.552C321.129 108.607 320.747 107.937 319.942 107.574C319.136 107.211 318.361 107.353 318.318 107.211C318.275 107.07 318.466 107.015 318.81 106.947C319.267 106.862 319.739 106.917 320.163 107.107C320.584 107.295 320.935 107.611 321.165 108.011C321.325 108.312 321.331 108.527 321.27 108.552Z" fill="#263238"/>
<path d="M311.43 107.9C311.345 108.096 311.186 108.25 310.989 108.331C310.791 108.411 310.57 108.411 310.372 108.331C310.273 108.296 310.182 108.242 310.104 108.172C310.026 108.102 309.963 108.016 309.918 107.921C309.874 107.826 309.85 107.722 309.846 107.617C309.843 107.512 309.861 107.408 309.899 107.31C309.984 107.113 310.143 106.957 310.342 106.875C310.541 106.794 310.764 106.793 310.963 106.873C311.062 106.909 311.153 106.964 311.23 107.035C311.307 107.106 311.37 107.192 311.413 107.288C311.457 107.384 311.481 107.487 311.484 107.592C311.487 107.698 311.468 107.802 311.43 107.9Z" fill="#263238"/>
<path d="M313.62 105.471C313.484 105.526 313.103 104.856 312.291 104.493C311.479 104.13 310.711 104.272 310.668 104.136C310.625 104.001 310.815 103.933 311.16 103.866C311.617 103.78 312.09 103.838 312.513 104.032C312.94 104.225 313.294 104.55 313.521 104.961C313.681 105.231 313.681 105.446 313.62 105.471Z" fill="#263238"/>
<path d="M313.33 112.839C313.814 112.901 314.288 113.018 314.745 113.189C314.96 113.263 315.175 113.306 315.274 113.189C315.387 112.985 315.435 112.751 315.409 112.519C315.409 111.904 315.47 111.319 315.501 110.674C315.655 108.06 315.864 105.944 315.969 105.951C316.073 105.957 316.036 108.085 315.883 110.698C315.839 111.344 315.803 111.928 315.76 112.543C315.777 112.849 315.688 113.151 315.507 113.398C315.445 113.457 315.37 113.501 315.288 113.527C315.206 113.552 315.119 113.559 315.034 113.546C314.905 113.526 314.779 113.491 314.659 113.441C314.192 113.298 313.746 113.095 313.33 112.839Z" fill="#263238"/>
<path d="M314.751 102.716C314.542 102.87 313.872 102.285 312.937 101.812C312.002 101.338 311.154 101.105 311.154 100.852C311.154 100.729 311.412 100.625 311.824 100.619C312.358 100.627 312.883 100.762 313.355 101.012C313.841 101.253 314.262 101.605 314.585 102.039C314.807 102.378 314.862 102.642 314.751 102.716Z" fill="#263238"/>
<path d="M322.291 105.619C322.069 105.735 321.596 105.299 320.932 105.004C320.267 104.708 319.64 104.573 319.597 104.321C319.597 104.204 319.751 104.056 320.077 103.995C320.497 103.937 320.926 104.005 321.307 104.192C321.696 104.376 322.019 104.677 322.229 105.053C322.401 105.33 322.395 105.576 322.291 105.619Z" fill="#263238"/>
<path d="M303.288 104.475C303.214 104.395 300.151 101.787 298.657 105.434C297.163 109.081 301.117 109.825 301.185 109.739C301.252 109.653 303.288 104.475 303.288 104.475Z" fill="#FFBF9D"/>
<path d="M300.637 107.888C300.637 107.888 300.551 107.888 300.428 107.888C300.25 107.891 300.078 107.825 299.948 107.703C299.775 107.457 299.669 107.169 299.642 106.869C299.615 106.569 299.668 106.267 299.795 105.994C299.916 105.678 300.105 105.392 300.348 105.157C300.428 105.057 300.532 104.978 300.65 104.927C300.768 104.877 300.897 104.857 301.025 104.868C301.106 104.877 301.181 104.915 301.236 104.975C301.292 105.035 301.323 105.113 301.326 105.194C301.326 105.317 301.283 105.379 301.326 105.391C301.369 105.403 301.43 105.391 301.461 105.2C301.476 105.103 301.459 105.004 301.412 104.917C301.342 104.8 301.23 104.714 301.098 104.678C300.936 104.647 300.768 104.658 300.611 104.71C300.454 104.761 300.313 104.852 300.2 104.973C299.923 105.225 299.712 105.542 299.585 105.895C299.435 106.213 299.382 106.567 299.431 106.915C299.48 107.262 299.63 107.588 299.862 107.851C299.948 107.919 300.047 107.967 300.154 107.991C300.26 108.016 300.371 108.016 300.477 107.992C300.606 107.974 300.643 107.9 300.637 107.888Z" fill="#FF9A6C"/>
<path d="M323.422 99.8684C324.142 99.7762 323.133 97.1502 321.94 95.9079C320.138 94.0322 317.02 92.0765 314.77 91.8428C312.051 91.5599 309.542 91.9597 307.427 93.6878C305.344 95.4806 303.773 97.7936 302.876 100.391C302.533 101.163 302.403 102.012 302.501 102.851C302.691 103.86 303.466 104.764 302.974 105.865C302.881 106.061 302.827 106.274 302.817 106.492C302.806 106.709 302.839 106.927 302.913 107.131C303.294 108.109 304.382 107.746 305.028 107.248C306.4 106.135 307.174 104.462 307.9 102.845C308.478 101.727 308.871 100.522 309.062 99.278C309.124 98.5954 309.062 97.9066 309.167 97.2301C309.199 96.8881 309.304 96.5568 309.475 96.2587C309.646 95.9607 309.878 95.7026 310.157 95.502C310.291 95.4307 310.431 95.371 310.575 95.3237C311.263 95.0802 312.003 95.0254 312.719 95.1649C313.435 95.3045 314.101 95.6332 314.647 96.117C316.418 97.6668 319.499 100.157 320.698 99.8069C321.526 99.6375 322.31 99.296 322.998 98.8045L323.422 99.8684Z" fill="#263238"/>
<path d="M313.441 115.729C313.441 115.797 313.232 115.864 312.894 115.815C312.452 115.742 312.042 115.541 311.713 115.237C311.383 114.935 311.149 114.544 311.037 114.112C310.963 113.779 311.037 113.564 311.08 113.558C311.123 113.552 311.43 114.259 312.082 114.837C312.734 115.415 313.447 115.575 313.441 115.729Z" fill="#263238"/>
<path d="M315.163 84.094C314.503 85.4232 313.749 86.7036 312.906 87.9254C312.152 89.2022 311.308 90.4231 310.378 91.5784C311.038 90.2507 311.792 88.9723 312.635 87.7532C313.393 86.477 314.238 85.2544 315.163 84.094Z" fill="#FF9A6C"/>
<path d="M299.198 197.473L310.637 208.334C310.637 208.334 305.102 245.411 306.074 245.479L319.739 246.451C319.739 246.451 327.979 203.537 327.358 201.022C326.737 198.506 306.756 178.71 306.756 178.71L306.51 175.309L300.828 174.553L299.198 197.473Z" fill="#263238"/>
<path d="M277.704 182.627C278.811 185.13 280.656 188.101 281.037 190.591L288.005 215.954L263.19 246.088L274.26 255.368C274.26 255.368 304.155 223.106 305.194 219.133C306.024 215.966 302.685 184.079 302.685 184.079L303.78 174.977L277.95 168.827V168.87C276.911 171.007 276.351 173.346 276.309 175.722C276.266 178.098 276.742 180.454 277.704 182.627Z" fill="#263238"/>
<path d="M280.029 246.881L272.034 256.106C272.034 256.106 278.215 266.973 276.892 268.818L259.421 254.673L271.339 239.79L280.029 246.881Z" fill="#263238"/>
<path d="M267.268 250.946C267.048 250.866 266.807 250.867 266.589 250.951C266.371 251.035 266.19 251.195 266.081 251.401C265.977 251.607 265.958 251.846 266.028 252.066C266.098 252.285 266.252 252.469 266.456 252.576C266.686 252.651 266.935 252.643 267.16 252.553C267.385 252.463 267.571 252.297 267.686 252.084C267.728 251.972 267.748 251.853 267.744 251.734C267.74 251.614 267.712 251.497 267.662 251.388C267.612 251.28 267.542 251.182 267.454 251.101C267.366 251.02 267.263 250.957 267.151 250.916" fill="#E0E0E0"/>
<path d="M259.402 254.667L260.632 253.216L276.911 267.36C276.911 267.36 277.403 268.351 276.849 268.855L259.402 254.667Z" fill="#455A64"/>
<path d="M272.385 256.248C272.305 256.334 271.85 256.032 271.192 255.977C270.534 255.922 270.011 256.125 269.962 256.026C269.912 255.928 270.46 255.51 271.247 255.583C272.034 255.657 272.465 256.192 272.385 256.248Z" fill="white"/>
<path d="M273.547 258.548C273.498 258.652 273.006 258.505 272.409 258.652C271.813 258.8 271.401 259.132 271.314 259.058C271.228 258.984 271.591 258.443 272.341 258.265C273.092 258.086 273.633 258.462 273.547 258.548Z" fill="white"/>
<path d="M272.735 261.709C272.643 261.666 272.889 261.094 273.504 260.798C274.119 260.503 274.678 260.614 274.654 260.719C274.629 260.823 274.174 260.885 273.67 261.149C273.166 261.413 272.827 261.782 272.735 261.709Z" fill="white"/>
<path d="M273.984 253.96C273.885 254.015 273.596 253.572 273.086 253.216C272.575 252.859 272.065 252.718 272.083 252.601C272.102 252.484 272.698 252.459 273.313 252.89C273.928 253.32 274.088 253.923 273.984 253.96Z" fill="white"/>
<path d="M319.204 238.96L319.056 251.414C319.056 251.414 331.005 255.805 331.19 258.111L308.288 258.578L307.771 239.163L319.204 238.96Z" fill="#263238"/>
<path d="M311.947 250.51C311.725 250.594 311.541 250.755 311.428 250.964C311.315 251.173 311.281 251.416 311.332 251.647C311.389 251.876 311.532 252.073 311.732 252.197C311.932 252.321 312.172 252.362 312.402 252.312C312.643 252.224 312.844 252.049 312.964 251.822C313.084 251.595 313.116 251.331 313.054 251.082C313.014 250.967 312.951 250.861 312.87 250.77C312.789 250.679 312.691 250.606 312.581 250.553C312.471 250.5 312.352 250.47 312.231 250.464C312.109 250.457 311.987 250.475 311.873 250.516" fill="#E0E0E0"/>
<path d="M308.281 258.578V256.617L330.23 256.899C330.23 256.899 331.263 257.348 331.165 258.129L308.281 258.578Z" fill="#455A64"/>
<path d="M319.419 251.285C319.419 251.401 318.859 251.463 318.318 251.857C317.777 252.25 317.494 252.748 317.389 252.705C317.285 252.662 317.439 251.973 318.103 251.512C318.767 251.051 319.437 251.174 319.419 251.285Z" fill="white"/>
<path d="M321.842 252.281C321.873 252.398 321.393 252.607 321.024 253.111C320.655 253.615 320.556 254.15 320.409 254.144C320.261 254.138 320.212 253.48 320.686 252.859C321.159 252.238 321.836 252.17 321.842 252.281Z" fill="white"/>
<path d="M323.275 255.288C323.17 255.288 323.004 254.729 323.275 254.058C323.545 253.388 324.068 253.136 324.117 253.234C324.166 253.333 323.847 253.683 323.631 254.224C323.416 254.765 323.361 255.27 323.275 255.288Z" fill="white"/>
<path d="M319.154 248.437C319.111 248.548 318.595 248.394 317.961 248.437C317.328 248.48 316.842 248.714 316.781 248.616C316.719 248.517 317.186 248.081 317.931 248.001C318.675 247.921 319.204 248.345 319.154 248.437Z" fill="white"/>
<path d="M302.869 181.963C302.9 182.072 302.92 182.183 302.931 182.295C302.962 182.547 302.999 182.861 303.048 183.248C303.146 184.073 303.269 185.272 303.411 186.754C303.694 189.718 304.026 193.82 304.327 198.359C304.628 202.897 304.862 206.969 305.053 209.97C305.133 211.421 305.2 212.614 305.249 213.494L305.286 214.453C305.301 214.563 305.301 214.675 305.286 214.785C305.252 214.678 305.234 214.566 305.231 214.453C305.231 214.201 305.17 213.887 305.126 213.5C305.053 212.626 304.954 211.433 304.831 209.988C304.598 207.018 304.321 202.91 304.013 198.377C303.706 193.845 303.398 189.767 303.195 186.772C303.085 185.327 302.999 184.134 302.931 183.261C302.931 182.873 302.888 182.554 302.869 182.301C302.855 182.189 302.855 182.075 302.869 181.963Z" fill="#455A64"/>
<path d="M363.335 133.508C363.821 134.431 361.914 135.261 361.914 135.261C362.357 135.624 361.914 137.192 361.14 137.26C361.465 137.512 361.699 137.536 361.847 137.924C361.924 138.116 361.956 138.323 361.939 138.529C361.922 138.735 361.856 138.934 361.748 139.111C361.633 139.282 361.465 139.411 361.269 139.477C361.074 139.544 360.862 139.545 360.666 139.48C360.863 139.731 360.98 140.035 361.001 140.353C361.022 140.672 360.946 140.989 360.783 141.263C360.578 141.588 360.261 141.825 359.891 141.927C359.707 141.98 359.516 141.998 359.325 141.983C359.252 141.985 359.179 141.975 359.11 141.952L359.03 141.891C358.926 141.774 358.839 141.645 358.729 141.54L358.593 141.423C358.383 141.258 358.151 141.121 357.905 141.017C357.782 140.982 357.663 140.937 357.548 140.882C357.486 140.829 357.428 140.772 357.376 140.71C356.944 140.408 356.454 140.199 355.937 140.095C355.371 139.968 354.853 139.685 354.442 139.277C354.25 139.064 354.147 138.785 354.156 138.498C354.165 138.211 354.286 137.939 354.492 137.739C354.308 137.706 354.143 137.606 354.03 137.458C353.916 137.311 353.861 137.126 353.877 136.94C353.899 136.758 353.968 136.585 354.075 136.437C354.183 136.288 354.326 136.17 354.492 136.091C354.828 135.938 355.201 135.881 355.568 135.925C355.366 135.85 355.202 135.7 355.109 135.506C355.016 135.312 355.002 135.09 355.07 134.886C355.149 134.684 355.277 134.507 355.444 134.369C355.611 134.231 355.81 134.138 356.023 134.099C356.448 134.023 356.884 134.04 357.302 134.148C357.72 134.24 359.473 134.603 359.903 134.634L360.34 133.496L360.402 133.348C361.183 133.25 361.41 133.182 362.105 133.139C362.615 133.09 363.114 133.127 363.335 133.508Z" fill="#FFBF9D"/>
<path d="M359.135 143.502C359.098 143.675 359.024 143.839 358.917 143.981C358.811 144.123 358.676 144.241 358.52 144.326C358 144.417 357.465 144.344 356.988 144.117L357.284 142.93L357.357 142.635C357.277 142.37 356.779 142.253 356.564 142.081C356.384 141.92 356.273 141.696 356.255 141.455C356.237 141.215 356.312 140.976 356.466 140.79C356.627 140.609 356.837 140.479 357.07 140.415C357.304 140.35 357.551 140.355 357.782 140.427C358.243 140.581 358.631 140.901 358.87 141.325C359.062 141.65 359.185 142.011 359.231 142.386C359.276 142.76 359.243 143.14 359.135 143.502Z" fill="#FFBF9D"/>
<path d="M360.777 139.517C359.779 139.063 358.739 138.709 357.671 138.459C356.63 138.106 355.557 137.859 354.467 137.721C355.466 138.179 356.508 138.533 357.579 138.779C358.616 139.135 359.688 139.383 360.777 139.517Z" fill="#FF9A6C"/>
<path d="M361.213 137.278C360.339 136.79 359.392 136.445 358.409 136.257C357.454 135.962 356.456 135.827 355.457 135.858C356.399 136.156 357.358 136.399 358.329 136.583C359.275 136.875 360.238 137.107 361.213 137.278Z" fill="#FF9A6C"/>
<path d="M361.638 135.095C360.91 134.702 360.115 134.445 359.295 134.338C358.493 134.121 357.666 134.007 356.835 134C357.588 134.333 358.386 134.556 359.202 134.664C359.999 134.882 360.814 135.027 361.638 135.095Z" fill="#FF9A6C"/>
<path d="M359.147 142.758C359.184 142.758 359.307 142.567 359.27 142.192C359.199 141.717 358.945 141.289 358.563 140.999C358.199 140.704 357.781 140.483 357.333 140.347C356.939 140.255 356.718 140.495 356.779 140.519C356.841 140.544 356.989 140.451 357.265 140.574C357.642 140.765 357.999 140.994 358.329 141.257C358.655 141.503 358.896 141.845 359.018 142.235C359.129 142.536 359.092 142.745 359.147 142.758Z" fill="#FF9A6C"/>
<path d="M307.949 153.704C307.939 153.398 307.957 153.091 308.005 152.788C308.066 152.173 308.146 151.306 308.238 150.328C308.435 148.231 308.663 145.328 308.792 142.118C308.921 138.908 308.915 135.968 308.89 133.89C308.89 132.881 308.859 132.045 308.847 131.393C308.823 131.088 308.823 130.781 308.847 130.476C308.913 130.775 308.948 131.08 308.952 131.387C309.001 132.002 309.05 132.826 309.093 133.883C309.185 135.993 309.216 138.908 309.093 142.13C308.97 145.353 308.699 148.28 308.447 150.347C308.318 151.398 308.201 152.241 308.109 152.807C308.085 153.11 308.031 153.411 307.949 153.704Z" fill="#263238"/>
<path d="M298.405 116.215C297.845 116.528 287.384 121.639 285.164 124.136C282.944 126.633 279.543 142.659 279.543 142.659L277.046 156.847L275.097 177.917L307.783 178.286C309.075 175.401 308.232 172.406 306.707 169.38L309.247 136.048L308.81 128.256L298.405 116.215Z" fill="#455A64"/>
<path d="M284.358 133.195C284.358 133.195 278.866 130.852 278.307 127.371C277.747 123.89 278.43 122.967 279.346 121.498C280.262 120.028 296.972 102.224 296.972 102.224L305.133 108.933L293.343 122.795C293.343 122.795 295.084 123.06 294.506 125.255" fill="#455A64"/>
<path d="M294.506 125.286C294.547 125.025 294.574 124.762 294.586 124.499C294.593 124.18 294.515 123.866 294.358 123.589C294.246 123.405 294.096 123.248 293.919 123.126C293.742 123.004 293.542 122.921 293.331 122.881H293.22L293.294 122.795L305.022 108.853V109.063L296.855 102.359H297.07L293.995 105.68L284.34 116.03C282.87 117.642 281.468 119.167 280.201 120.63C279.887 120.979 279.597 121.349 279.334 121.737C279.086 122.119 278.862 122.515 278.663 122.924C278.327 123.699 278.175 124.541 278.221 125.384C278.233 126.161 278.326 126.933 278.497 127.691C278.674 128.356 278.993 128.975 279.432 129.505C280.132 130.37 280.962 131.121 281.892 131.731C282.476 132.13 283.081 132.495 283.706 132.826L284.192 133.084C284.251 133.109 284.306 133.139 284.358 133.176C284.296 133.165 284.236 133.144 284.18 133.115L283.676 132.887C283.039 132.577 282.422 132.225 281.831 131.836C280.876 131.232 280.021 130.483 279.297 129.615C278.84 129.077 278.503 128.449 278.307 127.77C278.123 126.998 278.02 126.209 277.999 125.415C277.948 124.533 278.102 123.651 278.448 122.838C278.848 121.979 279.372 121.183 280.004 120.477C281.271 119.001 282.661 117.469 284.131 115.852C287.064 112.629 290.324 109.087 293.755 105.434L296.83 102.119L296.935 102.009L297.045 102.107L305.2 108.823L305.317 108.921L305.219 109.032L293.368 122.869L293.325 122.764C293.553 122.809 293.768 122.901 293.957 123.036C294.146 123.171 294.304 123.344 294.419 123.545C294.575 123.841 294.647 124.172 294.629 124.505C294.624 124.712 294.595 124.919 294.542 125.12C294.536 125.176 294.524 125.232 294.506 125.286Z" fill="#263238"/>
<path d="M298.073 87.9254C298.073 87.9254 297.113 87.1689 296.916 88.774C296.72 90.3791 298.251 96.7689 298.435 96.7689C298.62 96.7689 299.567 100.459 299.419 100.963C299.272 101.467 297.876 102.993 297.876 102.993L304.382 108.337L306.393 104.708C307.926 104.106 309.25 103.072 310.206 101.732C311.676 99.5732 317.248 91.3631 317.408 90.2131C317.568 89.0631 316.405 88.9093 315.563 90.0102C314.72 91.111 312.765 93.7001 312.414 93.8661C312.064 94.0322 311.854 93.534 312.045 93.2511C312.236 92.9683 315.895 87.1013 316.239 86.0066C316.701 84.5614 315.132 84.26 315.132 84.26C315.132 84.26 315.68 82.7348 314.874 82.4458C314.068 82.1568 313.281 82.9378 312.414 84.2354C311.547 85.533 308.601 89.7703 308.294 89.9671C307.986 90.1639 307.746 89.9671 308.017 89.389C308.287 88.8109 311.861 83.6204 311.848 82.8886C311.836 82.1568 311.301 81.0006 309.776 82.5442C308.251 84.0878 304.856 90.539 304.333 91.0925C303.81 91.646 302.267 93.411 301.67 93.2204C301.074 93.0298 299.653 91.1663 299.339 89.8503C299.172 89.0732 298.72 88.3868 298.073 87.9254Z" fill="#FFBF9D"/>
<path d="M298.073 87.9253C298.311 88.079 298.52 88.2749 298.688 88.5034C298.908 88.7793 299.082 89.0887 299.204 89.4198C299.284 89.6166 299.327 89.8379 299.401 90.0347C299.483 90.2729 299.582 90.5051 299.696 90.7297C299.966 91.2622 300.294 91.7633 300.674 92.2241C301.068 92.6669 301.64 93.5094 302.298 92.8391C302.939 92.3244 303.532 91.7521 304.069 91.1294C304.361 90.7918 304.615 90.4226 304.825 90.0286L305.551 88.7986C306.541 87.1013 307.587 85.2071 308.933 83.2637C309.273 82.759 309.688 82.309 310.163 81.9292C310.426 81.7157 310.754 81.5986 311.092 81.5971C311.269 81.6297 311.432 81.7126 311.563 81.8359C311.694 81.9591 311.787 82.1175 311.83 82.292C311.881 82.4536 311.912 82.6209 311.922 82.7902C311.915 82.8838 311.898 82.9765 311.873 83.0669L311.781 83.3006C311.645 83.5958 311.492 83.8787 311.338 84.1678C311.018 84.7336 310.674 85.287 310.323 85.8528L308.14 89.2968C308.057 89.4217 308.006 89.5655 307.992 89.715C307.992 89.7826 307.992 89.8011 308.029 89.8072C308.05 89.8162 308.072 89.8208 308.094 89.8208C308.116 89.8208 308.138 89.8162 308.158 89.8072L308.22 89.7457L308.306 89.6473C308.361 89.5858 308.411 89.512 308.466 89.4444L308.786 89.0262C309.21 88.4481 309.634 87.8638 310.053 87.2673L312.611 83.5774C312.843 83.2619 313.104 82.9695 313.392 82.7041C313.69 82.3991 314.092 82.2169 314.517 82.1936C314.744 82.1927 314.963 82.276 315.132 82.4273C315.293 82.593 315.387 82.8119 315.397 83.0423C315.423 83.4602 315.362 83.879 315.219 84.2723L315.102 84.0632C315.363 84.1069 315.611 84.2115 315.824 84.3686C316.038 84.5256 316.212 84.7307 316.332 84.9672C316.412 85.2157 316.437 85.4787 316.405 85.7379C316.373 85.997 316.285 86.2461 316.147 86.4678C315.717 87.3472 315.225 88.1775 314.733 89.0262L313.208 91.5661L312.42 92.8452L312.217 93.1589L312.125 93.3126C312.101 93.3468 312.088 93.3877 312.088 93.4295C312.082 93.4681 312.086 93.5076 312.097 93.5449C312.109 93.5822 312.129 93.6163 312.156 93.6447C312.179 93.6643 312.209 93.6749 312.239 93.6749C312.269 93.6749 312.299 93.6643 312.322 93.6447C312.422 93.5653 312.515 93.4768 312.599 93.3803L312.888 93.0543L313.447 92.3717C313.804 91.9043 314.167 91.4431 314.524 90.9818C314.88 90.5206 315.2 90.0532 315.618 89.592C315.837 89.3623 316.11 89.1911 316.412 89.0938C316.577 89.0301 316.759 89.0208 316.93 89.0672C317.102 89.1137 317.254 89.2134 317.365 89.3521C317.454 89.4921 317.512 89.6501 317.533 89.8149C317.554 89.9797 317.539 90.1472 317.488 90.3053C317.446 90.4516 317.39 90.5937 317.322 90.7297C317.26 90.865 317.199 91.0003 317.131 91.1233C316.867 91.6337 316.578 92.1257 316.282 92.6054C315.704 93.5709 315.102 94.518 314.505 95.4405C313.308 97.2896 312.119 99.0771 310.938 100.803C310.643 101.234 310.372 101.664 310.053 102.082C309.731 102.492 309.373 102.87 308.983 103.214C308.215 103.877 307.342 104.407 306.4 104.782L306.48 104.715L304.462 108.337L304.382 108.478L304.259 108.38L297.771 103.017L297.673 102.943L297.759 102.851C298.194 102.389 298.604 101.904 298.989 101.4C299.077 101.278 299.157 101.15 299.229 101.018C299.297 100.904 299.323 100.769 299.303 100.637C299.278 100.344 299.237 100.052 299.18 99.7639C299.069 99.1858 298.94 98.6323 298.798 98.0972C298.731 97.8328 298.657 97.5684 298.577 97.3162C298.532 97.1891 298.489 97.0661 298.448 96.9472C298.448 96.8919 298.392 96.8242 298.374 96.7935C298.374 96.7935 298.46 96.7935 298.405 96.7935C298.369 96.7862 298.336 96.7667 298.313 96.7381L298.269 96.6336C297.982 95.7076 297.742 94.7675 297.55 93.8169C297.365 92.9498 297.212 92.1503 297.095 91.4246C296.88 89.9979 296.695 88.8109 297.058 88.0791C297.093 87.9981 297.145 87.9252 297.209 87.8649C297.274 87.8046 297.35 87.7582 297.433 87.7285C297.555 87.6895 297.686 87.6895 297.808 87.7285C297.904 87.7618 297.992 87.8141 298.067 87.8823C298.067 87.8823 297.98 87.8208 297.796 87.7593C297.683 87.7265 297.564 87.7265 297.452 87.7593C297.375 87.7872 297.305 87.8314 297.246 87.8886C297.188 87.9459 297.143 88.0151 297.113 88.0914C296.787 88.7925 296.984 89.9363 297.218 91.3877C297.523 93.131 297.933 94.8541 298.448 96.5475C298.458 96.5732 298.47 96.598 298.485 96.6213C298.485 96.6213 298.429 96.6213 298.429 96.6582C298.429 96.6951 298.429 96.7627 298.429 96.6028H298.491V96.6336C298.532 96.6959 298.567 96.7617 298.595 96.8304C298.645 96.9595 298.688 97.0887 298.731 97.2178C298.811 97.4761 298.891 97.7344 298.964 98.005C299.106 98.54 299.241 99.0997 299.358 99.6839C299.421 99.98 299.464 100.28 299.487 100.582C299.493 100.664 299.493 100.746 299.487 100.828C299.47 100.914 299.439 100.997 299.395 101.074C299.322 101.216 299.237 101.351 299.143 101.48C298.763 101.998 298.352 102.493 297.913 102.962V102.796L304.432 108.128L304.229 108.165C304.844 106.996 305.539 105.785 306.234 104.536V104.493H306.283C307.182 104.126 308.014 103.61 308.743 102.968C309.117 102.639 309.459 102.274 309.764 101.879C310.065 101.486 310.379 101.037 310.643 100.606C311.812 98.8844 313.005 97.0948 314.198 95.2498C314.796 94.3233 315.385 93.3803 315.963 92.4209C316.252 91.9412 316.541 91.4492 316.799 90.9511C316.867 90.8281 316.928 90.7051 316.984 90.5759C317.045 90.4581 317.094 90.3345 317.131 90.2069C317.171 90.0928 317.185 89.9714 317.172 89.8512C317.159 89.731 317.12 89.6152 317.057 89.512C316.983 89.4263 316.883 89.3664 316.773 89.341C316.662 89.3155 316.547 89.3259 316.442 89.3706C316.193 89.4553 315.969 89.6012 315.79 89.7949C315.428 90.1946 315.077 90.6989 314.72 91.1479C314.364 91.5968 314.001 92.0765 313.638 92.5439C313.454 92.7776 313.269 93.0051 313.078 93.2327L312.777 93.5771C312.667 93.704 312.541 93.8157 312.402 93.9092C312.316 93.9536 312.218 93.9692 312.123 93.9537C312.028 93.9382 311.94 93.8924 311.873 93.8231C311.815 93.7597 311.77 93.6849 311.743 93.6033C311.715 93.5217 311.705 93.4353 311.713 93.3495C311.719 93.263 311.744 93.1789 311.787 93.1035L311.891 92.9375L312.094 92.6238L312.968 91.4308C313.484 90.5821 313.989 89.7334 314.493 88.897C314.997 88.0606 315.477 87.2119 315.895 86.3633C316.013 86.184 316.091 85.9811 316.123 85.7687C316.155 85.5562 316.14 85.3394 316.08 85.1333C315.98 84.946 315.839 84.7839 315.668 84.6592C315.496 84.5346 315.298 84.4506 315.089 84.4138L314.917 84.3769L314.973 84.2108C315.099 83.8625 315.156 83.4925 315.139 83.1223C315.133 82.9631 315.072 82.8108 314.966 82.6918C314.846 82.5948 314.696 82.5426 314.542 82.5442C314.193 82.5727 313.866 82.7254 313.62 82.9747C313.346 83.2276 313.097 83.5056 312.875 83.8049L310.317 87.4948C309.899 88.1098 309.475 88.6818 309.044 89.2599L308.718 89.6842L308.546 89.8994L308.46 90.004L308.325 90.1208C308.268 90.1565 308.204 90.1784 308.138 90.1848C308.072 90.1912 308.005 90.1819 307.943 90.1577C307.879 90.1268 307.825 90.0777 307.788 90.0166C307.75 89.9555 307.732 89.8848 307.734 89.8133C307.743 89.6123 307.804 89.4172 307.912 89.2476C308.657 88.0176 309.419 86.9229 310.12 85.7975C310.471 85.2317 310.815 84.6782 311.129 84.1186C311.283 83.8418 311.436 83.5651 311.566 83.2822L311.652 83.0731C311.658 83.0117 311.658 82.9499 311.652 82.8886C311.649 82.7422 311.624 82.5971 311.578 82.4581C311.552 82.3301 311.489 82.2125 311.398 82.1196C311.306 82.0268 311.189 81.9627 311.061 81.9354C310.784 81.9418 310.518 82.0415 310.305 82.2183C309.866 82.5679 309.479 82.9779 309.155 83.4359C307.808 85.3301 306.75 87.2181 305.748 88.9093C305.496 89.3275 305.256 89.7395 305.016 90.1393C304.795 90.5418 304.531 90.9191 304.229 91.2647C303.677 91.8903 303.07 92.4646 302.414 92.9805C302.256 93.1018 302.077 93.1935 301.886 93.2511C301.782 93.285 301.67 93.285 301.566 93.2511C301.48 93.2093 301.397 93.1599 301.32 93.1035C301.052 92.878 300.808 92.6244 300.594 92.3471C300.217 91.8728 299.891 91.3594 299.622 90.8158C299.51 90.5849 299.413 90.3465 299.333 90.1024C299.266 89.8687 299.223 89.6535 299.149 89.4874C299.039 89.1591 298.875 88.8515 298.663 88.5772C298.537 88.404 298.393 88.2452 298.233 88.1037C298.174 88.0493 298.12 87.9896 298.073 87.9253Z" fill="#FF9A6C"/>
<path d="M293.374 122.857C292.51 124.497 291.437 126.018 290.182 127.383C288.908 128.756 287.161 129.595 285.293 129.732" fill="#455A64"/>
<path d="M285.293 129.732C285.293 129.671 285.908 129.671 286.855 129.345C288.07 128.906 289.168 128.195 290.066 127.266C290.965 126.328 291.762 125.297 292.446 124.191C292.718 123.72 293.028 123.271 293.374 122.851C293.186 123.362 292.941 123.851 292.642 124.308C292.001 125.466 291.211 126.535 290.293 127.488C289.362 128.451 288.203 129.164 286.923 129.56C286.536 129.669 286.138 129.735 285.736 129.757C285.588 129.777 285.438 129.769 285.293 129.732Z" fill="#263238"/>
<path d="M294.014 127.598C293.779 128.052 293.476 128.467 293.116 128.828C291.466 130.656 289.335 131.982 286.966 132.653C286.484 132.817 285.98 132.905 285.471 132.912C288.798 132.049 291.784 130.199 294.038 127.604L294.014 127.598Z" fill="#263238"/>
<g opacity="0.3">
<path d="M285.521 129.437C287.058 129.997 288.522 130.206 290.004 129.523C291.504 128.825 292.674 127.57 293.263 126.024C293.682 124.911 293.78 123.681 294.272 122.592C295.373 120.175 298.251 118.785 298.903 116.215C296.609 118.724 294.456 120.969 292.679 123.976C291.832 125.451 290.726 126.762 289.413 127.844C288.302 128.801 286.905 129.363 285.441 129.443" fill="black"/>
</g>
<g opacity="0.3">
<path d="M308.601 147.395L310.04 147.819C310.04 147.819 310.594 137.081 309.062 133.828L308.601 147.395Z" fill="black"/>
</g>
<path d="M167.492 119.241L163.378 96.3077C162.148 90.6313 164.46 85.201 170.143 84.1494L170.678 84.0817C173.262 83.76 175.873 84.4227 177.992 85.9382C180.11 87.4537 181.58 89.711 182.11 92.2611C183.131 97.181 184.195 102.636 184.497 105.305C185.112 110.84 179.7 112.383 179.7 112.383C179.7 112.383 180.222 115.729 180.493 117.334L182.412 120.883L177.713 120.538L167.492 119.241Z" fill="#AE7461"/>
<path d="M179.718 112.383C177.167 112.696 174.58 112.269 172.264 111.154C172.264 111.154 174.509 115.089 179.958 113.909L179.718 112.383Z" fill="#6F4439"/>
<path d="M180.616 97.636C180.644 97.8421 180.59 98.051 180.466 98.2177C180.342 98.3845 180.157 98.4959 179.952 98.5278C179.852 98.5473 179.75 98.5468 179.651 98.5264C179.551 98.5059 179.457 98.4659 179.374 98.4087C179.29 98.3514 179.219 98.2781 179.164 98.1929C179.109 98.1078 179.072 98.0125 179.054 97.9128C179.026 97.7084 179.079 97.5011 179.202 97.3354C179.325 97.1698 179.508 97.0591 179.712 97.0272C179.811 97.0058 179.914 97.0047 180.014 97.024C180.114 97.0433 180.209 97.0825 180.293 97.1393C180.378 97.1962 180.45 97.2695 180.505 97.3548C180.561 97.4402 180.598 97.5358 180.616 97.636Z" fill="#263238"/>
<path d="M181.262 94.8501C181.176 94.9608 180.524 94.598 179.675 94.7025C178.826 94.8071 178.255 95.3175 178.15 95.2191C178.045 95.1207 178.15 94.9854 178.421 94.7517C178.764 94.4476 179.194 94.2584 179.651 94.2106C180.092 94.1534 180.541 94.2396 180.93 94.4565C181.188 94.6226 181.299 94.7948 181.262 94.8501Z" fill="#263238"/>
<path d="M173.101 98.5893C173.128 98.7942 173.074 99.0014 172.951 99.1677C172.829 99.3339 172.646 99.4462 172.443 99.481C172.343 99.5006 172.24 99.5002 172.141 99.4798C172.041 99.4594 171.947 99.4195 171.862 99.3623C171.778 99.3051 171.706 99.2318 171.651 99.1466C171.595 99.0614 171.557 98.966 171.539 98.866C171.509 98.6607 171.561 98.4518 171.684 98.2848C171.808 98.1177 171.992 98.0062 172.197 97.9743C172.297 97.9539 172.4 97.9536 172.5 97.9737C172.6 97.9937 172.694 98.0335 172.779 98.0909C172.863 98.1482 172.935 98.2218 172.99 98.3075C173.046 98.3931 173.083 98.4889 173.101 98.5893Z" fill="#263238"/>
<path d="M172.965 96.0801C172.879 96.197 172.227 95.828 171.379 95.9387C170.53 96.0494 169.964 96.5536 169.86 96.4552C169.755 96.3568 169.86 96.2154 170.13 95.9879C170.471 95.679 170.903 95.489 171.36 95.4467C171.801 95.3867 172.25 95.4709 172.639 95.6865C172.898 95.8526 173.008 96.0309 172.965 96.0801Z" fill="#263238"/>
<path d="M176.822 102.224C177.252 102.028 177.704 101.886 178.168 101.8C178.384 101.75 178.587 101.683 178.599 101.529C178.591 101.306 178.514 101.091 178.377 100.914L177.529 99.3457C176.348 97.1072 175.462 95.256 175.555 95.2068C176.424 96.468 177.195 97.7942 177.861 99.1735L178.679 100.76C178.847 101.005 178.925 101.301 178.9 101.597C178.877 101.676 178.837 101.75 178.781 101.812C178.726 101.874 178.657 101.922 178.58 101.953C178.465 102.003 178.343 102.036 178.218 102.052C177.761 102.168 177.292 102.226 176.822 102.224Z" fill="#263238"/>
<path d="M172.91 93.3926C172.824 93.6263 171.969 93.4972 170.967 93.6017C169.964 93.7063 169.122 93.9645 169.011 93.7555C168.956 93.6571 169.103 93.4357 169.429 93.2204C169.87 92.9457 170.37 92.7812 170.887 92.7407C171.4 92.6877 171.919 92.7572 172.4 92.9437C172.763 93.0974 172.947 93.2758 172.91 93.3926Z" fill="#263238"/>
<path d="M180.985 92.3471C180.837 92.5685 180.118 92.464 179.288 92.5685C178.457 92.6731 177.775 92.9129 177.584 92.7346C177.504 92.6485 177.584 92.4394 177.867 92.2118C178.258 91.9266 178.719 91.7524 179.201 91.7076C179.678 91.6406 180.164 91.7088 180.604 91.9044C180.93 92.0458 181.053 92.2426 180.985 92.3471Z" fill="#263238"/>
<path d="M164.337 100.336C164.239 100.336 160.401 99.7209 160.992 103.448C161.582 107.175 165.235 105.84 165.229 105.729C165.223 105.619 164.337 100.336 164.337 100.336Z" fill="#AE7461"/>
<path d="M163.851 104.487C163.851 104.487 163.796 104.542 163.691 104.61C163.621 104.657 163.541 104.689 163.458 104.704C163.374 104.719 163.288 104.716 163.206 104.696C162.94 104.58 162.709 104.396 162.538 104.161C162.368 103.926 162.262 103.65 162.234 103.362C162.174 103.041 162.187 102.711 162.271 102.396C162.281 102.267 162.324 102.142 162.397 102.035C162.469 101.927 162.567 101.84 162.683 101.781C162.755 101.751 162.836 101.746 162.911 101.769C162.986 101.791 163.051 101.839 163.095 101.904C163.163 102.002 163.15 102.076 163.175 102.082C163.199 102.089 163.243 102.009 163.175 101.855C163.141 101.765 163.075 101.691 162.99 101.646C162.934 101.614 162.872 101.594 162.807 101.586C162.743 101.579 162.677 101.584 162.615 101.603C162.461 101.654 162.323 101.746 162.215 101.868C162.107 101.99 162.033 102.138 162 102.298C161.89 102.648 161.867 103.019 161.933 103.38C161.97 103.719 162.106 104.04 162.325 104.301C162.544 104.563 162.835 104.754 163.163 104.85C163.273 104.87 163.386 104.862 163.493 104.829C163.6 104.796 163.698 104.738 163.778 104.659C163.864 104.579 163.87 104.493 163.851 104.487Z" fill="#6F4439"/>
<path d="M174.263 103.183C174.392 103.183 174.54 104.02 175.382 104.505C176.225 104.991 177.123 104.733 177.153 104.856C177.184 104.979 176.975 105.059 176.588 105.133C176.086 105.23 175.566 105.142 175.124 104.887C174.695 104.645 174.377 104.246 174.238 103.774C174.146 103.423 174.202 103.189 174.263 103.183Z" fill="#263238"/>
<path d="M188.882 86.062C188.782 85.8505 188.603 85.6869 188.383 85.6069C187.91 85.4777 187.411 85.4777 186.938 85.6069C185.737 85.7683 184.516 85.6548 183.365 85.2748C183.71 85.0346 184.015 84.7421 184.269 84.4076C184.541 84.0651 184.713 83.6549 184.769 83.2213C184.824 82.7878 184.76 82.3474 184.583 81.9477C184.553 81.8717 184.506 81.8037 184.445 81.7492C184.384 81.6947 184.311 81.6553 184.232 81.634C183.974 81.591 183.796 81.8677 183.654 82.083C183.485 82.4117 183.23 82.6883 182.916 82.8832C182.601 83.0782 182.24 83.1842 181.871 83.19C181.363 83.2408 180.851 83.1712 180.376 82.987L180.321 82.944L179.657 82.452C178.384 81.4194 176.922 80.6463 175.352 80.1765C173.045 79.7187 170.657 79.8995 168.445 80.6993C166.6 81.4987 165.131 83.3191 165.174 85.3178C163.944 84.5798 162.345 84.8381 161.121 85.5638H161.084C159.706 86.308 159.122 87.9746 158.919 89.5243C158.919 89.6104 158.919 89.6965 158.919 89.7826C158.547 90.644 157.976 91.4049 157.253 92.0027C157.124 92.1011 156.982 92.2303 156.988 92.3963C156.994 92.5624 157.154 92.6669 157.296 92.7407C157.678 92.9326 158.098 93.0376 158.526 93.0482C158.453 93.4242 158.346 93.7927 158.206 94.149C158.083 94.4504 157.941 94.8132 158.126 95.0838C158.208 95.1813 158.319 95.2508 158.442 95.2827C158.565 95.3147 158.696 95.3075 158.815 95.2622C159.045 95.1678 159.255 95.0276 159.43 94.8501C159.325 95.2622 159.221 95.6804 159.122 96.0801C159.665 96.0872 160.202 95.9671 160.69 95.7296C161.213 97.0702 161.847 99.604 162.351 100.49C163.347 100.354 163.581 100.207 164.104 100.299C164.792 100.41 164.719 101.603 165.518 101.148C165.924 100.914 166.33 99.1735 166.41 98.6877C166.912 95.6135 166.747 92.4672 165.924 89.4628C166.433 88.7335 167.076 88.1074 167.818 87.6179L167.763 87.6855C169.22 86.9168 170.875 86.1173 172.449 86.6154C173.679 87.0029 174.515 88.073 175.524 88.8786C176.366 89.6197 177.355 90.1752 178.427 90.509C179.498 90.8427 180.627 90.9473 181.742 90.8158C182.215 92.4394 182.701 95.1207 183.021 96.6828L183.863 93.3803C183.94 93.1789 184.005 92.9736 184.06 92.7653V92.7038C184.152 92.3902 184.238 92.0888 184.361 91.7567C184.564 91.8968 184.812 91.9553 185.055 91.9205C185.299 91.8858 185.521 91.7604 185.676 91.5693C185.832 91.3783 185.909 91.1357 185.893 90.89C185.878 90.6443 185.77 90.4135 185.591 90.2439C185.433 90.0832 185.25 89.9484 185.05 89.8441C185.269 89.997 185.524 90.0914 185.79 90.1184C186.056 90.1453 186.324 90.1038 186.569 89.9979C186.808 89.8794 187.002 89.6863 187.122 89.4478C187.242 89.2093 187.281 88.9383 187.233 88.6757C187.185 88.5005 187.091 88.3412 186.962 88.2137C186.832 88.0863 186.671 87.9953 186.495 87.95C187.188 87.8973 187.849 87.6405 188.396 87.212C188.765 86.9475 189.091 86.5109 188.882 86.062Z" fill="#263238"/>
<path d="M166.969 85.6807C166.795 85.8727 166.637 86.0784 166.496 86.2957C166.143 86.8903 165.95 87.5662 165.936 88.2575C165.91 88.7323 165.935 89.2085 166.01 89.6781C166.09 90.1824 166.213 90.7236 166.342 91.2894C166.484 91.8811 166.591 92.4807 166.662 93.0851C166.687 93.4085 166.687 93.7334 166.662 94.0568C166.667 94.4007 166.583 94.74 166.416 95.0408C166.337 95.1631 166.227 95.2626 166.097 95.3295C165.968 95.3964 165.823 95.4283 165.678 95.4221C165.401 95.4156 165.135 95.3159 164.921 95.1392C164.559 94.772 164.301 94.316 164.171 93.817H164.288C164.186 94.2491 164.02 94.6636 163.796 95.0469C163.588 95.4087 163.249 95.6772 162.849 95.7972C162.658 95.8527 162.455 95.8527 162.265 95.7972C162.088 95.7388 161.933 95.6271 161.822 95.4774C161.716 95.3426 161.65 95.1806 161.631 95.01C161.613 94.85 161.652 94.6886 161.742 94.5549L161.803 94.598C161.536 95.0236 161.182 95.3882 160.764 95.6681C160.653 95.7401 160.538 95.8058 160.42 95.8649L160.291 95.9202C160.325 95.8895 160.365 95.8646 160.407 95.8464C160.481 95.7972 160.598 95.7296 160.739 95.6312C161.139 95.3416 161.478 94.9758 161.736 94.5549L161.803 94.598C161.732 94.7281 161.702 94.8771 161.719 95.0247C161.735 95.1722 161.797 95.311 161.896 95.4221C161.997 95.5547 162.137 95.6534 162.295 95.705C162.468 95.7542 162.651 95.7542 162.824 95.705C163.206 95.5933 163.532 95.3405 163.734 94.9977C163.948 94.612 164.105 94.1979 164.202 93.7678L164.251 93.5833L164.319 93.7678C164.445 94.2331 164.691 94.6572 165.032 94.9977C165.225 95.1561 165.465 95.2468 165.715 95.256C165.837 95.2606 165.958 95.2328 166.066 95.1756C166.174 95.1184 166.265 95.0337 166.33 94.9301C166.484 94.6496 166.562 94.3338 166.557 94.0138C166.582 93.6965 166.582 93.3778 166.557 93.0605C166.492 92.4602 166.39 91.8645 166.25 91.2771C166.121 90.7113 166.004 90.1701 165.93 89.6535C165.859 89.1773 165.838 88.6949 165.868 88.2144C165.895 87.5116 166.107 86.8283 166.483 86.2342C166.615 86.0252 166.779 85.8384 166.969 85.6807Z" fill="#455A64"/>
<path d="M184.829 88.3989L184.792 88.442L184.669 88.565C184.613 88.6142 184.546 88.6818 184.46 88.7495C184.362 88.8321 184.26 88.9081 184.152 88.977C183.466 89.4241 182.68 89.6946 181.864 89.7642C180.648 89.8742 179.426 89.6285 178.347 89.057C177.045 88.3445 175.9 87.3759 174.983 86.2096C174.478 85.5946 174.048 84.9796 173.593 84.3954C173.171 83.8298 172.667 83.3303 172.098 82.9132C171.591 82.5293 170.994 82.2816 170.364 82.1937C170.081 82.1625 169.795 82.1749 169.515 82.2306C169.256 82.2842 169.006 82.3732 168.771 82.4951C168.055 82.8719 167.506 83.504 167.234 84.2662C167.147 84.5478 167.095 84.8391 167.08 85.1334C167.08 85.1334 167.08 85.1334 167.08 85.078V84.9058C167.094 84.6832 167.131 84.4627 167.191 84.2478C167.302 83.9144 167.466 83.6009 167.677 83.3191C167.959 82.9446 168.32 82.6362 168.734 82.4151C168.974 82.2862 169.231 82.191 169.497 82.1322C169.788 82.0685 170.087 82.0539 170.383 82.0892C171.033 82.1746 171.651 82.4244 172.178 82.8149C172.753 83.2413 173.264 83.7464 173.697 84.3154C174.159 84.8935 174.589 85.5454 175.093 86.1235C175.996 87.2792 177.123 88.2396 178.408 88.9463C179.465 89.5137 180.662 89.7656 181.858 89.672C182.663 89.614 183.442 89.3607 184.128 88.934C184.601 88.6265 184.816 88.3559 184.829 88.3989Z" fill="#455A64"/>
<path d="M184.988 85.8959C184.932 85.9548 184.873 86.0103 184.81 86.062C184.641 86.2061 184.46 86.3357 184.269 86.4494C183.992 86.625 183.7 86.7752 183.396 86.8984C183.019 87.0463 182.63 87.1595 182.233 87.2366C181.828 87.3105 181.416 87.3456 181.003 87.3412C180.675 87.3374 180.348 87.3045 180.025 87.2428C179.806 87.2063 179.59 87.1508 179.38 87.0767C179.232 87.0275 179.152 86.9968 179.158 86.9845C179.164 86.9722 179.49 87.0706 180.038 87.1505C180.357 87.1976 180.68 87.2202 181.003 87.2182C181.399 87.219 181.795 87.1819 182.184 87.1075C182.571 87.0306 182.951 86.9237 183.322 86.7877C183.625 86.6714 183.919 86.5316 184.201 86.3695C184.675 86.0989 184.939 85.8959 184.988 85.8959Z" fill="#455A64"/>
<path d="M236.703 155.679L238.831 155.34C239.491 154.674 240.23 154.092 241.032 153.606C242.262 152.893 243.326 152.893 243.634 153.483C243.783 153.804 243.818 154.166 243.733 154.51C243.648 154.853 243.448 155.157 243.166 155.371C242.551 155.955 240.141 156.601 240.005 157.616C239.87 158.631 247.588 161.921 247.588 161.921L241.488 168.864L232.632 164.153L232.226 163.427L232.134 161.521L236.703 155.679Z" fill="#AE7461"/>
<path d="M174.927 174.823L177.609 206.434L176.705 211.925C176.705 211.925 165.745 243.413 165.973 256.444L178.795 255.829C178.795 255.829 191.31 220.16 192.294 216.243C193.278 212.325 198.321 185.967 198.321 185.967L206.636 206.796L206.87 211.649L202.079 241.863L216.968 242.644C216.968 242.644 223.062 208.352 222.46 203.9C221.857 199.447 212.005 164.676 212.005 164.676L206.925 160.242L177.953 165.162L174.927 174.823Z" fill="#263238"/>
<path d="M215.591 233.432L215.123 246.106C215.123 246.106 227.183 250.866 227.312 253.222L203.998 253.173L203.943 233.388L215.591 233.432Z" fill="#263238"/>
<path d="M207.922 245.018C207.693 245.098 207.5 245.257 207.379 245.467C207.259 245.677 207.217 245.924 207.263 246.162C207.314 246.396 207.454 246.601 207.655 246.732C207.855 246.863 208.099 246.91 208.334 246.863C208.579 246.777 208.785 246.605 208.913 246.379C209.041 246.153 209.082 245.887 209.028 245.633C208.869 245.172 208.247 244.803 207.835 245.018" fill="#E0E0E0"/>
<path d="M203.998 253.173L204.065 251.174L226.408 251.943C226.408 251.943 227.447 252.422 227.324 253.173H203.998Z" fill="#455A64"/>
<path d="M215.51 245.983C215.51 246.106 214.938 246.156 214.379 246.543C213.819 246.931 213.518 247.429 213.413 247.379C213.309 247.33 213.481 246.642 214.164 246.186C214.846 245.731 215.535 245.873 215.51 245.983Z" fill="white"/>
<path d="M217.958 247.06C217.958 247.177 217.49 247.379 217.103 247.884C216.716 248.388 216.599 248.929 216.488 248.923C216.377 248.917 216.304 248.24 216.796 247.619C217.288 246.998 217.952 246.943 217.958 247.06Z" fill="white"/>
<path d="M219.342 250.153C219.237 250.153 219.077 249.575 219.373 248.923C219.668 248.271 220.203 248.001 220.246 248.105C220.289 248.21 219.969 248.554 219.735 249.095C219.502 249.636 219.428 250.141 219.342 250.153Z" fill="white"/>
<path d="M215.314 243.081C215.264 243.191 214.742 243.025 214.084 243.081C213.426 243.136 212.94 243.339 212.854 243.234C212.768 243.13 213.278 242.706 214.041 242.663C214.803 242.619 215.369 242.988 215.314 243.081Z" fill="white"/>
<path d="M177.547 246.771L177.639 261.327L181.028 272.815C181.086 273.012 181.103 273.218 181.078 273.421C181.053 273.624 180.987 273.82 180.883 273.997C180.779 274.173 180.64 274.326 180.475 274.447C180.309 274.567 180.121 274.653 179.921 274.697C179.689 274.749 179.447 274.744 179.217 274.683C178.987 274.622 178.775 274.507 178.599 274.347C176.317 272.28 167.959 264.648 168.015 263.578C168.076 262.348 166.902 248.234 166.902 248.234L177.547 246.771Z" fill="#263238"/>
<path d="M179.921 274.697L167.984 262.6V263.215C168.001 263.748 168.206 264.258 168.562 264.654C169.515 265.712 172.215 268.578 178.537 274.347C178.719 274.512 178.938 274.631 179.176 274.692C179.414 274.753 179.664 274.755 179.903 274.697H179.921Z" fill="#455A64"/>
<g opacity="0.6">
<path d="M170.844 257.816C171.025 257.944 171.154 258.134 171.205 258.351C171.256 258.567 171.226 258.795 171.12 258.99C171.001 259.177 170.815 259.311 170.6 259.365C170.385 259.419 170.157 259.388 169.964 259.279C169.773 259.146 169.638 258.947 169.585 258.72C169.531 258.493 169.564 258.254 169.675 258.05C169.819 257.868 170.027 257.748 170.257 257.717C170.486 257.686 170.719 257.746 170.905 257.883" fill="white"/>
</g>
<path d="M176.409 268.437C176.496 268.474 176.803 267.699 177.639 267.268C178.166 267.039 178.732 266.913 179.306 266.899C179.306 266.862 179.134 266.752 178.789 266.715C178.34 266.679 177.89 266.773 177.492 266.985C177.092 267.192 176.761 267.51 176.539 267.902C176.379 268.209 176.379 268.424 176.409 268.437Z" fill="white"/>
<path d="M177.504 270.355C177.913 270.105 178.338 269.883 178.777 269.691C179.244 269.586 179.716 269.51 180.192 269.464C179.963 269.331 179.706 269.255 179.442 269.241C179.178 269.227 178.914 269.276 178.673 269.384C177.824 269.661 177.424 270.312 177.504 270.355Z" fill="white"/>
<path d="M174.411 265.995C175.009 265.562 175.641 265.175 176.299 264.839C176.999 264.597 177.717 264.408 178.445 264.273C177.678 264.144 176.891 264.238 176.176 264.543C175.461 264.849 174.848 265.352 174.411 265.995Z" fill="white"/>
<path d="M174.011 261.573C174.054 261.659 174.847 261.297 175.893 261.229C176.938 261.161 177.775 261.389 177.805 261.297C177.225 260.943 176.539 260.806 175.868 260.909C175.191 260.909 174.534 261.143 174.011 261.573Z" fill="white"/>
<path d="M173.876 257.299C174.505 257.078 175.16 256.941 175.825 256.893C176.49 256.946 177.144 257.09 177.769 257.324C177.769 257.287 177.627 257.115 177.289 256.93C176.836 256.702 176.336 256.582 175.828 256.582C175.321 256.582 174.821 256.702 174.368 256.93C174.023 257.09 173.857 257.268 173.876 257.299Z" fill="white"/>
<path d="M160.678 119.942C160.678 119.942 152.88 124.64 158.544 135.894C165.45 149.67 172.024 169.048 174.281 170.334C175.204 170.857 179.54 168.686 179.54 168.686L182.977 162.314L173.857 138.49L167.904 124.714L160.678 119.942Z" fill="#455A64"/>
<path d="M166.367 116.289L160.678 119.942L175.764 146.571L173.58 170.358L176.994 172.289L212.226 167.406L213.37 165.814L209.502 154.639L204.348 142.094C204.348 142.094 199.25 130.692 196.243 125.833C193.235 120.975 190.001 116.067 190.001 116.067L181.391 115.452L180.333 114.278C180.333 114.278 179.029 116.639 175.487 116.854C172.603 117.033 166.483 115.471 166.483 115.471L166.367 116.289Z" fill="#455A64"/>
<path d="M236.703 155.679C236.703 155.679 216.033 139.123 214.348 137.192C212.663 135.261 198.291 120.126 198.291 120.126C198.291 120.126 193.033 115.083 190.013 116.067C186.323 117.297 193.703 135.07 193.703 135.07C193.703 135.07 208.905 147.69 211.371 150.088C213.838 152.487 228.653 162.019 228.653 162.019L232.164 161.533L236.703 155.679Z" fill="#455A64"/>
<path d="M169.663 130.587C169.724 130.686 169.776 130.791 169.817 130.901C169.921 131.147 170.05 131.448 170.204 131.823C170.536 132.629 171.022 133.791 171.631 135.224C172.861 138.09 174.607 141.989 176.551 146.343C178.494 150.697 180.173 154.645 181.286 157.554C181.846 159.006 182.276 160.193 182.553 161.017C182.676 161.404 182.781 161.718 182.867 161.97C182.91 162.078 182.939 162.192 182.953 162.308C182.889 162.211 182.839 162.106 182.805 161.995L182.436 161.06C182.123 160.248 181.661 159.079 181.077 157.634C179.909 154.75 178.199 150.808 176.256 146.472C174.312 142.137 172.566 138.201 171.428 135.31C170.844 133.865 170.389 132.69 170.093 131.866C169.958 131.485 169.853 131.171 169.761 130.925C169.712 130.818 169.679 130.704 169.663 130.587Z" fill="#263238"/>
<path d="M194.964 123.853C194.964 123.853 195.031 123.902 195.154 124.031C195.321 124.223 195.472 124.429 195.603 124.646C195.966 125.175 196.446 125.981 196.999 126.983C198.112 128.994 199.545 131.823 201.071 134.978C202.596 138.133 203.918 141.017 204.853 143.108C205.32 144.16 205.695 145.009 205.941 145.605C206.083 145.905 206.202 146.216 206.298 146.534C206.11 146.258 205.952 145.963 205.824 145.654L204.65 143.194L200.782 135.095C199.262 131.94 197.854 129.099 196.803 127.069C196.274 126.048 195.831 125.224 195.499 124.689C195.167 124.154 194.939 123.878 194.964 123.853Z" fill="#263238"/>
<g opacity="0.3">
<path d="M174.38 141.86C174.38 141.86 172.91 133.662 173.765 128.871C174.62 124.081 177.055 117.107 177.055 117.107L181.36 115.262L203.776 126.153L205.437 128.164L202.466 137.604L204.68 154.824L174.38 141.86Z" fill="black"/>
</g>
<path d="M179.773 127.475C181.452 96.6398 198.77 80.0413 220.756 81.2405C242.865 82.4705 258.147 100.822 256.468 131.67C254.79 162.517 237.601 179.11 215.486 177.904C193.5 176.693 178.088 158.317 179.773 127.475ZM235.633 130.519C236.789 109.296 230.098 100.096 219.76 99.5302C209.533 98.9706 201.894 107.396 200.738 128.619C199.582 149.842 206.273 159.049 216.482 159.602C226.838 160.168 234.477 151.749 235.633 130.519Z" fill="#078E85"/>
<g opacity="0.3">
<path d="M179.773 127.475C181.452 96.6398 198.77 80.0413 220.756 81.2405C242.865 82.4705 258.147 100.822 256.468 131.67C254.79 162.517 237.601 179.11 215.486 177.904C193.5 176.693 178.088 158.317 179.773 127.475ZM235.633 130.519C236.789 109.296 230.098 100.096 219.76 99.5302C209.533 98.9706 201.894 107.396 200.738 128.619C199.582 149.842 206.273 159.049 216.482 159.602C226.838 160.168 234.477 151.749 235.633 130.519Z" fill="black"/>
</g>
<path d="M173.433 127.506C175.118 96.6705 192.43 80.072 214.416 81.2712C236.555 82.5012 251.813 100.846 250.134 131.7C248.455 162.554 231.26 179.14 209.151 177.935C187.159 176.723 171.754 158.341 173.433 127.506ZM229.292 130.581C230.455 109.358 223.757 100.151 213.419 99.5917C203.192 99.032 195.554 107.451 194.398 128.681C193.242 149.91 199.933 159.104 210.148 159.664C220.498 160.199 228.136 151.773 229.268 130.55L229.292 130.581Z" fill="#078E85"/>
<path d="M196.673 174.153L192.854 171.828C192.854 171.828 188.949 169.251 188.709 168.858C188.419 168.225 188.254 167.542 188.223 166.847C188.223 166.281 189.982 165.002 190.179 163.919C190.376 162.837 189.213 161.767 188.795 161.583C188.377 161.398 187.947 162.044 187.854 162.523C187.762 163.003 187.061 163.704 185.96 163.95C184.859 164.196 183.346 165.629 183.346 165.629L180.038 171.853C180.604 172.917 187.381 175.45 187.59 175.573C187.799 175.696 195.025 175.832 195.745 175.573C195.901 175.546 196.051 175.487 196.184 175.399C196.316 175.312 196.43 175.198 196.517 175.065C196.604 174.931 196.663 174.782 196.69 174.625C196.717 174.468 196.711 174.307 196.673 174.153Z" fill="#AE7461"/>
<path d="M250.485 161.189C250.522 162.228 248.443 162.161 248.443 162.161C248.689 162.671 247.613 163.901 246.881 163.63C247.071 163.993 247.268 164.116 247.231 164.528C247.219 164.736 247.156 164.938 247.049 165.117C246.942 165.296 246.794 165.446 246.616 165.555C246.439 165.661 246.231 165.705 246.026 165.682C245.82 165.659 245.628 165.569 245.479 165.426C245.55 165.737 245.525 166.062 245.408 166.359C245.29 166.655 245.086 166.909 244.821 167.087C244.495 167.291 244.105 167.368 243.726 167.302C243.538 167.268 243.356 167.201 243.191 167.105C243.125 167.077 243.065 167.037 243.013 166.988C242.991 166.961 242.976 166.93 242.97 166.896C242.92 166.748 242.902 166.595 242.847 166.453L242.773 166.287C242.653 166.047 242.502 165.823 242.324 165.623C242.231 165.537 242.145 165.444 242.065 165.346C242.03 165.273 242.002 165.197 241.979 165.119C241.726 164.654 241.378 164.248 240.959 163.926C240.5 163.573 240.154 163.094 239.962 162.548C239.878 162.273 239.904 161.976 240.035 161.72C240.166 161.464 240.391 161.269 240.663 161.177C240.518 161.064 240.419 160.903 240.384 160.724C240.349 160.544 240.381 160.357 240.473 160.199C240.572 160.045 240.709 159.918 240.87 159.831C241.031 159.744 241.212 159.699 241.395 159.701C241.764 159.709 242.123 159.818 242.434 160.014C242.284 159.859 242.2 159.652 242.2 159.436C242.2 159.22 242.284 159.013 242.434 158.858C242.592 158.712 242.784 158.608 242.993 158.555C243.201 158.503 243.419 158.503 243.628 158.557C244.046 158.675 244.432 158.885 244.759 159.172C245.097 159.43 246.524 160.512 246.899 160.728L247.785 159.891L247.902 159.781C248.646 160.033 248.886 160.07 249.525 160.328C250.036 160.512 250.466 160.758 250.485 161.189Z" fill="#AE7461"/>
<path d="M242.404 168.409C242.294 168.548 242.155 168.662 241.997 168.743C241.839 168.824 241.665 168.869 241.488 168.876C240.979 168.738 240.527 168.443 240.196 168.034C240.196 168.034 240.952 167.074 240.952 167.074L241.143 166.841C241.186 166.564 240.793 166.226 240.67 165.998C240.573 165.772 240.568 165.518 240.655 165.289C240.742 165.059 240.915 164.873 241.137 164.768C241.362 164.678 241.608 164.653 241.846 164.697C242.084 164.74 242.305 164.85 242.484 165.014C242.842 165.348 243.062 165.805 243.099 166.293C243.138 166.675 243.097 167.061 242.977 167.425C242.857 167.79 242.662 168.125 242.404 168.409Z" fill="#AE7461"/>
<path d="M245.608 165.518C244.902 164.679 244.115 163.91 243.259 163.225C242.472 162.458 241.611 161.772 240.688 161.177C242.173 162.79 243.822 164.245 245.608 165.518Z" fill="#6F4439"/>
<path d="M246.961 163.686C246.387 162.868 245.683 162.149 244.876 161.558C244.138 160.881 243.294 160.329 242.379 159.922C243.103 160.597 243.865 161.229 244.661 161.816C245.388 162.486 246.157 163.111 246.961 163.686Z" fill="#6F4439"/>
<path d="M248.289 161.896C247.801 161.228 247.194 160.655 246.5 160.205C245.875 159.668 245.185 159.214 244.446 158.852C244.981 159.475 245.603 160.02 246.291 160.469C246.912 161.005 247.581 161.483 248.289 161.896Z" fill="#6F4439"/>
<path d="M242.736 167.739C242.736 167.769 242.964 167.634 243.093 167.283C243.234 166.824 243.189 166.327 242.97 165.9C242.773 165.482 242.497 165.106 242.158 164.793C241.838 164.534 241.543 164.664 241.58 164.707C241.617 164.75 241.801 164.737 241.998 164.965C242.257 165.301 242.481 165.661 242.668 166.041C242.852 166.406 242.921 166.818 242.865 167.222C242.797 167.536 242.699 167.689 242.736 167.739Z" fill="#6F4439"/>
<path d="M106.781 239.987L104.8 251.672C104.8 251.672 116.534 256.463 116.633 258.763L93.8289 258.418L96.6885 239.188L106.781 239.987Z" fill="#263238"/>
<path d="M97.7648 250.54C97.5392 250.615 97.3482 250.769 97.2273 250.974C97.1063 251.178 97.0635 251.42 97.1068 251.654C97.1529 251.882 97.287 252.084 97.4802 252.215C97.6734 252.346 97.9102 252.396 98.1399 252.355C98.3793 252.276 98.5817 252.112 98.7095 251.895C98.8374 251.678 98.8819 251.422 98.8349 251.174C98.8005 251.057 98.7431 250.948 98.666 250.853C98.5889 250.759 98.4938 250.681 98.3861 250.623C98.2784 250.566 98.1604 250.531 98.0389 250.52C97.9174 250.509 97.795 250.522 97.6787 250.559" fill="#E0E0E0"/>
<path d="M93.8289 258.437L94.1179 256.5L115.753 257.551C115.753 257.551 116.762 258.031 116.633 258.781L93.8289 258.437Z" fill="#455A64"/>
<path d="M105.169 251.574C105.169 251.691 104.61 251.734 104.056 252.109C103.503 252.484 103.201 252.964 103.103 252.914C103.005 252.865 103.177 252.195 103.853 251.758C104.53 251.322 105.2 251.469 105.169 251.574Z" fill="white"/>
<path d="M107.549 252.656C107.549 252.767 107.088 252.964 106.701 253.449C106.313 253.935 106.202 254.464 106.086 254.458C105.969 254.452 105.913 253.788 106.399 253.185C106.885 252.582 107.549 252.558 107.549 252.656Z" fill="white"/>
<path d="M108.865 255.694C108.761 255.694 108.619 255.128 108.914 254.464C109.21 253.8 109.732 253.579 109.775 253.677C109.818 253.775 109.493 254.114 109.259 254.642C109.025 255.171 108.976 255.682 108.865 255.694Z" fill="white"/>
<path d="M105.04 248.739C104.991 248.843 104.487 248.671 103.853 248.708C103.22 248.745 102.728 248.948 102.672 248.843C102.617 248.739 103.097 248.333 103.835 248.302C104.573 248.271 105.04 248.646 105.04 248.739Z" fill="white"/>
<path d="M73.811 241.826L67.7595 252.644C67.7595 252.644 76.1357 262.164 75.1947 264.242L54.937 253.788L63.7129 236.568L73.811 241.826Z" fill="#263238"/>
<path d="M61.9908 248.48C61.7553 248.446 61.5151 248.498 61.315 248.627C61.1148 248.756 60.9682 248.953 60.9023 249.181C60.8432 249.407 60.8744 249.647 60.9892 249.85C61.104 250.053 61.2934 250.204 61.5173 250.27C61.7663 250.303 62.0189 250.246 62.229 250.108C62.439 249.97 62.5924 249.761 62.6611 249.52C62.7349 249.046 62.3536 248.45 61.8924 248.468" fill="#E0E0E0"/>
<path d="M54.937 253.788L55.8841 252.084L74.9487 262.766C74.9487 262.766 75.6375 263.646 75.1886 264.261L54.937 253.788Z" fill="#455A64"/>
<path d="M68.1408 252.705C68.0854 252.81 67.5627 252.601 66.9108 252.705C66.2589 252.81 65.7669 253.093 65.6808 253.007C65.5947 252.92 66.0744 252.392 66.8739 252.299C67.6734 252.207 68.2207 252.619 68.1408 252.705Z" fill="white"/>
<path d="M69.7951 254.735C69.7643 254.845 69.2416 254.802 68.682 255.067C68.1223 255.331 67.7779 255.756 67.6857 255.682C67.5934 255.608 67.8271 254.999 68.5344 254.679C69.2416 254.36 69.8443 254.63 69.7951 254.735Z" fill="white"/>
<path d="M69.6169 258.043C69.5185 258.043 69.6169 257.428 70.195 256.986C70.773 256.543 71.3265 256.555 71.3204 256.666C71.3142 256.776 70.8776 256.93 70.4287 257.281C69.9797 257.631 69.7214 258.093 69.6169 258.043Z" fill="white"/>
<path d="M69.2661 250.098C69.1739 250.171 68.7987 249.796 68.2145 249.544C67.6303 249.292 67.1075 249.255 67.1014 249.144C67.0952 249.034 67.7163 248.868 68.3867 249.175C69.057 249.483 69.3707 250.036 69.2661 250.098Z" fill="white"/>
<path d="M87.9312 170.223C87.9312 170.223 92.0086 209.65 90.797 214.213C89.5855 218.776 70.0843 253.634 70.0843 253.634L56.6099 246.149C56.6099 246.149 72.9931 214.582 72.784 213.248C72.575 211.913 73.2207 208.119 73.2207 208.119L64.1804 177.873L65.9823 164.885L81.972 163.274L87.9312 170.223Z" fill="#263238"/>
<path d="M77.2427 185.093C77.6486 186.323 99.3392 211.064 99.3392 211.064C99.2596 211.596 99.3455 212.139 99.5852 212.62C100.055 213.231 100.698 213.686 101.43 213.924L92.8203 249.593L107.881 250.983C107.881 250.983 116.866 215.314 116.491 210.794C116.116 206.274 94.6591 171.379 94.6591 171.379L79.2844 170.549L77.2427 185.093Z" fill="#263238"/>
<path d="M88.3309 178.839C88.3119 179.169 88.2604 179.497 88.1771 179.817C88.0765 180.711 88.0518 181.612 88.1033 182.511C88.3568 185.477 88.7943 188.424 89.4133 191.336C90.0329 194.261 90.4806 197.22 90.7539 200.198C90.8175 201.105 90.801 202.017 90.7047 202.922C90.6678 203.254 90.5977 203.582 90.4957 203.9C90.5 203.568 90.5288 203.237 90.5818 202.91C90.627 202.012 90.6085 201.111 90.5264 200.216C90.348 197.941 89.7454 194.835 89.0996 191.397C88.4679 188.472 88.0568 185.503 87.8697 182.517C87.8355 181.607 87.8932 180.696 88.0418 179.798C88.1118 179.471 88.2085 179.15 88.3309 178.839Z" fill="#455A64"/>
<path d="M120.47 118.109C120.47 118.109 123.219 113.693 125.735 113.3C128.25 112.906 132.604 113.3 132.604 113.3L130.255 122.795L125.027 123.699L120.47 118.109Z" fill="#FFBF9D"/>
<path d="M80.3484 125.335L99.8066 126.522L119.757 117.236L125.931 124.794L101.486 137.782L87.9681 139.48L80.3484 125.335Z" fill="#455A64"/>
<path d="M140.943 145.482L125.507 142.776L122.02 162.689L100.618 158.944L104.105 139.031L53.0613 130.095L55.6442 115.335L110.87 63.0245L133.895 67.0526L82.4639 116.824L107.931 121.276L111.036 103.534L131.755 107.162L128.649 124.905L144.092 127.611L140.943 145.482Z" fill="#078E85"/>
<g opacity="0.3">
<path d="M140.943 145.482L125.507 142.776L122.02 162.689L100.618 158.944L104.105 139.031L53.0613 130.095L55.6442 115.335L110.87 63.0245L133.895 67.0526L82.4639 116.824L107.931 121.276L111.036 103.534L131.755 107.162L128.649 124.905L144.092 127.611L140.943 145.482Z" fill="black"/>
</g>
<path d="M135.728 144.756L120.286 142.057L116.799 161.964L95.3971 158.219L98.8902 138.305L47.8462 129.369L50.4291 114.61L105.655 62.2927L128.68 66.3208L77.2303 116.092L102.691 120.55L105.766 102.802L126.491 106.43L123.385 124.173L138.821 126.879L135.728 144.756Z" fill="#078E85"/>
<g opacity="0.3">
<path d="M89.5854 135.322C89.5854 135.322 87.353 129.308 85.3789 126.989C83.8926 125.175 82.5068 123.28 81.2277 121.313L91.1659 116.934L85.9754 112.955L77.2242 116.965L76.7014 124.825L87.2608 135.827L89.5854 135.322Z" fill="black"/>
</g>
<path d="M82.3347 95.5082C83.3346 96.3423 84.1176 97.4063 84.6166 98.609C85.1157 99.8117 85.3161 101.117 85.2005 102.414C85.0837 103.644 84.7085 105.096 85.5019 106.068C86.2952 107.039 87.8819 107.039 88.6383 108.029C89.53 109.198 88.7306 110.895 89.0319 112.334C89.1942 113.011 89.5936 113.607 90.1578 114.014C90.722 114.422 91.4135 114.613 92.1068 114.554C90.4655 115.839 88.5012 116.646 86.4305 116.885L84.8992 114.831C85.1561 115.218 85.2768 115.68 85.2423 116.143C85.2078 116.606 85.02 117.045 84.7085 117.389C84.0545 118.072 83.2101 118.541 82.2855 118.736C80.154 119.347 77.9103 119.458 75.7289 119.06C73.5476 118.663 71.4875 117.767 69.709 116.442" fill="#263238"/>
<path d="M58.4979 106.147C58.9161 105.224 59.2856 104.28 59.6048 103.319C60.103 101.197 59.1129 98.7799 60.1829 96.8796C60.9455 95.5328 62.526 94.8932 64.0143 94.4688C65.5026 94.0445 67.0893 93.6878 68.2331 92.6239C69.0572 91.8428 69.5431 90.7789 70.361 89.9671C71.5356 88.854 73.2453 88.4973 74.8627 88.4296C76.5314 88.3023 78.2047 88.6073 79.7211 89.3152C80.4727 89.6784 81.1288 90.2124 81.6371 90.8744C82.1454 91.5365 82.4917 92.3083 82.6485 93.1281C82.6608 93.9388 82.7389 94.7471 82.8822 95.5451C83.1404 96.3999 83.7985 97.0702 84.1921 97.8697C84.5841 98.7299 84.6821 99.6952 84.4709 100.617C84.2597 101.538 83.7511 102.364 83.0236 102.968L71.3388 117.469C68.9281 118.324 63.141 117.119 61.3268 115.311C59.5126 113.503 57.6861 108.564 58.4979 106.147Z" fill="#263238"/>
<path d="M82.759 101.08C82.3531 97.7283 79.887 93.7308 76.5538 94.272L66.2404 97.5192C65.751 97.598 65.309 97.8581 65.0025 98.2477C64.696 98.6374 64.5474 99.1282 64.5861 99.6224L67.1322 123.884C67.1322 123.884 66.3634 124.499 65.8714 124.29C65.8442 124.277 65.8135 124.274 65.7842 124.28C65.7548 124.287 65.7286 124.303 65.7096 124.327C65.6905 124.35 65.6798 124.379 65.679 124.409C65.6783 124.439 65.6875 124.468 65.7054 124.493C66.8985 126.338 72.5564 134.234 78.6201 131.965C79.967 131.46 78.5709 127.217 78.7616 125.655L78.657 121.664C78.5648 119.622 78.5217 118.785 78.5217 118.81C78.5217 118.835 82.7775 117.851 83.3494 112.187C83.6077 109.37 83.208 104.807 82.759 101.08Z" fill="#FFBF9D"/>
<path d="M81.9411 106.191C81.9547 106.378 81.8939 106.563 81.7719 106.706C81.6498 106.849 81.4764 106.937 81.2892 106.953C81.1976 106.966 81.1043 106.96 81.015 106.936C80.9258 106.912 80.8424 106.869 80.7699 106.812C80.6974 106.754 80.6374 106.683 80.5935 106.601C80.5495 106.52 80.5226 106.43 80.5143 106.338C80.5007 106.15 80.5613 105.964 80.6832 105.821C80.8051 105.677 80.9785 105.587 81.1662 105.569C81.2583 105.557 81.3521 105.563 81.4418 105.587C81.5314 105.612 81.6151 105.655 81.6877 105.713C81.7602 105.771 81.8201 105.843 81.8637 105.925C81.9073 106.008 81.9336 106.098 81.9411 106.191Z" fill="#263238"/>
<path d="M74.9549 106.516C74.9669 106.703 74.9055 106.888 74.7838 107.03C74.6621 107.172 74.4896 107.262 74.303 107.279C74.2112 107.291 74.1179 107.285 74.0286 107.26C73.9393 107.235 73.8558 107.193 73.7831 107.136C73.7103 107.079 73.6497 107.007 73.6049 106.926C73.5601 106.845 73.5319 106.756 73.522 106.664C73.5099 106.476 73.5711 106.291 73.6927 106.148C73.8143 106.005 73.9868 105.914 74.1739 105.895C74.2663 105.882 74.3604 105.888 74.4504 105.913C74.5405 105.938 74.6245 105.98 74.6976 106.038C74.7706 106.097 74.8311 106.169 74.8753 106.251C74.9196 106.333 74.9467 106.423 74.9549 106.516Z" fill="#263238"/>
<path d="M82.2487 103.854C82.1688 103.983 81.5046 103.546 80.6682 103.651C79.8318 103.755 79.2783 104.321 79.1738 104.21C79.0692 104.1 79.1738 103.94 79.4259 103.681C79.7351 103.344 80.1531 103.126 80.6067 103.066C81.0541 103.015 81.5052 103.124 81.8797 103.374C82.1688 103.589 82.2856 103.792 82.2487 103.854Z" fill="#263238"/>
<path d="M74.7213 104.346C74.6229 104.469 73.9711 103.977 73.0732 104.001C72.1753 104.026 71.5234 104.518 71.425 104.401C71.3266 104.284 71.4742 104.136 71.7571 103.903C72.1341 103.609 72.5956 103.446 73.0732 103.435C73.5475 103.429 74.0106 103.58 74.3892 103.866C74.6721 104.063 74.7705 104.272 74.7213 104.346Z" fill="#263238"/>
<path d="M77.4394 109.677C77.8357 109.528 78.2487 109.426 78.6694 109.376C78.8662 109.345 79.0507 109.296 79.0753 109.161C79.0834 108.956 79.0275 108.754 78.9154 108.583L78.245 107.113C77.6319 105.867 77.1158 104.576 76.7014 103.251C77.4188 104.44 78.0359 105.686 78.5464 106.978L79.1983 108.46C79.3347 108.691 79.3848 108.964 79.3397 109.229C79.3163 109.3 79.2763 109.366 79.2228 109.419C79.1694 109.473 79.1041 109.513 79.0322 109.536C78.9252 109.574 78.8134 109.597 78.7001 109.604C78.2846 109.68 77.8611 109.705 77.4394 109.677Z" fill="#263238"/>
<path d="M78.4972 118.81C75.858 118.998 73.2183 118.451 70.8713 117.23C70.8713 117.23 72.9807 121.061 78.5648 120.218L78.4972 118.81Z" fill="#FF9A6C"/>
<path d="M75.035 111.885C75.1291 111.7 75.2687 111.541 75.4409 111.424C75.6505 111.326 75.8884 111.306 76.1112 111.369C76.442 111.426 76.7459 111.588 76.9783 111.83C77.0927 111.952 77.1719 112.103 77.2076 112.266C77.2434 112.43 77.2343 112.6 77.1813 112.759C77.089 113.084 76.6032 113.251 76.2711 113.3C75.9353 113.341 75.5957 113.262 75.3117 113.078C75.1881 113.022 75.08 112.937 74.9964 112.83C74.9129 112.723 74.8565 112.597 74.832 112.463C74.8429 112.255 74.9134 112.055 75.035 111.885Z" fill="#FF9A6C"/>
<path d="M75.2194 110.803C75.3424 110.803 75.3916 111.627 76.148 112.18C76.9044 112.734 77.79 112.593 77.8023 112.709C77.8146 112.826 77.6117 112.888 77.2304 112.918C76.7394 112.951 76.2525 112.812 75.8528 112.525C75.4707 112.245 75.2108 111.829 75.1271 111.363C75.0779 111.012 75.1579 110.803 75.2194 110.803Z" fill="#263238"/>
<path d="M74.7152 101.886C74.6475 102.095 73.8726 102.039 72.9686 102.205C72.0646 102.371 71.345 102.654 71.2159 102.47C71.1544 102.384 71.2712 102.181 71.5603 101.959C71.9373 101.68 72.3762 101.497 72.8395 101.424C73.3011 101.344 73.7751 101.374 74.2232 101.51C74.5614 101.615 74.7398 101.769 74.7152 101.886Z" fill="#263238"/>
<path d="M81.6706 100.557C81.523 100.742 80.908 100.594 80.17 100.631C79.432 100.668 78.8232 100.828 78.6694 100.631C78.5157 100.434 78.6694 100.367 78.9523 100.182C79.3206 99.9498 79.7469 99.8261 80.1823 99.8254C80.6108 99.8018 81.0372 99.8999 81.4123 100.108C81.6214 100.293 81.7136 100.471 81.6706 100.557Z" fill="#263238"/>
<path d="M63.9529 98.2818C64.5662 97.5455 65.3938 97.0188 66.3206 96.775C70.1726 95.3755 74.1778 94.4402 78.2514 93.9891C78.7372 94.8317 78.2514 95.9571 77.4765 96.5475C76.6479 97.0636 75.743 97.4455 74.7951 97.6791C74.3225 97.8017 73.8793 98.0178 73.4916 98.3146C73.104 98.6114 72.7797 98.9829 72.5381 99.4072C72.1199 100.354 72.4336 101.492 72.0646 102.482C71.4496 104.149 69.0757 104.647 68.4423 106.313C67.9688 107.58 68.6821 108.946 68.8359 110.286C68.9183 110.968 68.8542 111.659 68.6478 112.313C68.4415 112.967 68.0976 113.57 67.6393 114.081C67.181 114.592 66.6188 114.998 65.9905 115.274C65.3621 115.55 64.6821 115.688 63.9959 115.68C63.8114 110.858 63.629 106.039 63.4486 101.221C63.4117 100.194 63.3932 99.112 63.9529 98.2818Z" fill="#263238"/>
<path d="M53.996 110.249C54.7709 109.585 55.7364 109.019 56.0624 108.042C56.5298 106.633 55.4474 104.967 56.1792 103.663C56.8742 102.494 58.8483 102.593 59.494 101.4C59.9983 100.471 59.4571 99.6286 59.6539 98.8045C59.8311 98.3651 60.1421 97.9927 60.5428 97.74C60.9434 97.4872 61.4135 97.3669 61.8863 97.3961L68.2699 107.051C68.8172 110.262 69.4015 111.971 68.6758 113.816C68.211 114.801 67.8503 115.832 67.5996 116.891C67.481 117.426 67.5074 117.983 67.676 118.504C67.8447 119.025 68.1495 119.492 68.5589 119.856C64.623 120.089 60.9761 117.961 57.6122 115.901L54.0514 113.724C53.6598 113.53 53.3235 113.24 53.0735 112.882C52.5815 112.027 53.2457 110.92 53.996 110.249Z" fill="#263238"/>
<path d="M57.5508 114.966C57.6864 115.012 57.8267 115.043 57.969 115.059C58.3795 115.108 58.7954 115.087 59.199 114.997C59.8419 114.856 60.4373 114.551 60.9271 114.112C61.572 113.514 61.9857 112.708 62.0955 111.836C62.1633 111.33 62.1299 110.816 61.9971 110.323C61.8293 109.803 61.5936 109.306 61.2961 108.847C60.9798 108.375 60.7352 107.859 60.5704 107.316C60.4868 107.038 60.4656 106.745 60.5081 106.458C60.5506 106.171 60.6559 105.897 60.8164 105.655C61.1854 105.182 61.8495 105.077 62.4707 104.844C62.8093 104.729 63.1053 104.515 63.3194 104.229C63.5222 103.928 63.6254 103.571 63.6146 103.208C63.5438 102.509 63.4058 101.819 63.2025 101.148C63.1286 100.818 63.1286 100.475 63.2025 100.145C63.2942 99.8217 63.4994 99.5422 63.7806 99.358C64.392 99.021 65.0814 98.8512 65.7793 98.866C66.4954 98.8542 67.1971 98.6639 67.8211 98.3125C68.4162 97.956 68.9047 97.4463 69.2356 96.8365C69.5168 96.2444 69.7016 95.6112 69.7829 94.9608C69.8625 94.3613 70.0047 93.7718 70.2072 93.2019C70.42 92.6799 70.743 92.2099 71.1543 91.8244C71.8408 91.1885 72.7111 90.7865 73.6404 90.676C74.5696 90.5655 75.5099 90.7522 76.3264 91.2094C76.89 91.5095 77.3943 91.9096 77.8146 92.3901C78.1693 92.8067 78.4747 93.2628 78.7248 93.7493C78.7248 93.7493 78.7248 93.7124 78.7248 93.6509C78.7248 93.5894 78.6572 93.4787 78.5895 93.3557C78.406 92.9894 78.1788 92.6466 77.913 92.3348C77.4961 91.8351 76.9892 91.4179 76.4186 91.1048C75.6615 90.6673 74.7955 90.454 73.9218 90.4898C72.8541 90.5606 71.8428 90.9947 71.0559 91.7198C70.6217 92.1228 70.278 92.6133 70.0473 93.1589C69.8385 93.7403 69.6921 94.3423 69.6107 94.9546C69.5249 95.581 69.3445 96.1906 69.0757 96.7627C68.7639 97.338 68.3001 97.8167 67.735 98.1464C67.1447 98.4838 66.4776 98.6638 65.7978 98.6692C65.0581 98.6541 64.3278 98.8367 63.6822 99.1981C63.3558 99.4129 63.1178 99.7382 63.0119 100.114C62.9291 100.479 62.9291 100.857 63.0119 101.221C63.2072 101.88 63.3431 102.555 63.4178 103.239C63.4301 103.556 63.3442 103.87 63.1718 104.136C62.9766 104.38 62.7165 104.563 62.4215 104.665C62.1263 104.782 61.8065 104.862 61.499 104.985C61.1804 105.097 60.8978 105.292 60.6811 105.551C60.4984 105.818 60.3791 106.122 60.3322 106.442C60.2853 106.762 60.3121 107.088 60.4105 107.396C60.5822 107.958 60.8372 108.49 61.1669 108.976C61.4578 109.42 61.6894 109.9 61.8557 110.403C62.0343 111.042 62.0371 111.718 61.864 112.359C61.6908 112.999 61.348 113.582 60.8717 114.044C60.4033 114.479 59.8319 114.788 59.2112 114.942C58.6653 115.063 58.1001 115.072 57.5508 114.966Z" fill="#455A64"/>
<path d="M52.4403 108.091C52.3727 108.186 52.3265 108.295 52.305 108.411C52.2361 108.744 52.2884 109.09 52.4526 109.388C52.5715 109.605 52.7401 109.791 52.9446 109.93C53.1972 110.082 53.4859 110.165 53.781 110.169C54.1416 110.169 54.4953 110.07 54.8033 109.882C55.1113 109.695 55.3619 109.426 55.5275 109.106C55.7215 108.737 55.8248 108.328 55.8289 107.912C55.8226 107.466 55.7373 107.025 55.5767 106.609C55.2815 105.754 54.7342 104.911 54.7404 103.921C54.7267 103.676 54.7621 103.431 54.8444 103.199C54.9268 102.968 55.0545 102.756 55.22 102.574C55.6276 102.254 56.1434 102.104 56.6591 102.156C57.2329 102.212 57.8119 102.164 58.3688 102.015C58.6597 101.902 58.9073 101.699 59.076 101.437C59.2413 101.176 59.3464 100.882 59.3835 100.576C59.419 99.9911 59.3818 99.4044 59.2728 98.8291C59.1983 98.2873 59.2402 97.7359 59.3958 97.2116C59.6949 96.2114 60.3662 95.3639 61.2715 94.8439C62.125 94.4317 63.0674 94.2373 64.0144 94.2782C64.8574 94.2927 65.6976 94.1765 66.5051 93.9338C67.1674 93.7017 67.7746 93.3353 68.2885 92.8575C68.6816 92.5025 69.0158 92.0873 69.2787 91.6276C69.5138 91.2497 69.6803 90.8333 69.7707 90.3976C69.6235 90.8136 69.4339 91.2134 69.2049 91.5907C68.5683 92.6155 67.5972 93.3889 66.4559 93.78C65.6563 94.0068 64.8268 94.1105 63.9959 94.0875C63.018 94.0386 62.0433 94.2352 61.1608 94.6594C60.2083 95.1966 59.4959 96.0761 59.1683 97.1194C59.0062 97.6739 58.9602 98.2559 59.033 98.8291C59.1426 99.3857 59.1798 99.9541 59.1437 100.52C59.1283 100.79 59.0386 101.051 58.8845 101.274C58.7304 101.496 58.5179 101.672 58.2704 101.781C57.7407 101.918 57.1914 101.961 56.6468 101.91C56.0745 101.856 55.5042 102.031 55.0601 102.396C54.8714 102.595 54.726 102.832 54.6328 103.09C54.5397 103.348 54.5009 103.623 54.519 103.897C54.5301 104.403 54.6409 104.903 54.8449 105.366C55.0294 105.815 55.2323 106.234 55.3861 106.652C55.5449 107.043 55.6304 107.46 55.6382 107.882C55.6398 108.271 55.5469 108.655 55.3676 109.001C55.2169 109.298 54.9887 109.548 54.7072 109.726C54.4257 109.903 54.1014 110.001 53.7687 110.01C53.5627 110.013 53.3584 109.973 53.1698 109.89C52.9812 109.807 52.813 109.684 52.6766 109.529C52.5403 109.375 52.4392 109.193 52.3804 108.995C52.3215 108.798 52.3063 108.59 52.3358 108.386C52.3656 108.286 52.4005 108.187 52.4403 108.091Z" fill="#263238"/>
<path d="M93.8228 111.252C93.9405 111.584 93.9405 111.947 93.8228 112.279C93.7531 112.469 93.6418 112.641 93.4971 112.782C93.3524 112.924 93.1779 113.031 92.9864 113.097C92.7317 113.165 92.4629 113.162 92.2099 113.087C91.957 113.012 91.7297 112.869 91.5535 112.672C91.3524 112.442 91.2391 112.148 91.2337 111.842C91.2266 111.505 91.283 111.169 91.3997 110.852C91.7553 110.151 91.9645 109.385 92.0147 108.601C91.9929 108.16 91.8794 107.728 91.6814 107.333C91.4834 106.938 91.2052 106.589 90.8647 106.307C90.5019 106.007 90.0842 105.779 89.6347 105.637C89.1814 105.5 88.712 105.424 88.2387 105.409C87.7815 105.396 87.3266 105.34 86.8796 105.243C86.4611 105.147 86.0905 104.905 85.8341 104.561C85.6061 104.213 85.4823 103.808 85.4774 103.392C85.4608 102.979 85.5022 102.565 85.6004 102.162C85.832 101.418 85.9663 100.647 86.0001 99.8684C85.9737 99.1753 85.7426 98.5055 85.336 97.9435C84.9887 97.4989 84.561 97.1234 84.0752 96.8365C83.7209 96.621 83.3837 96.3783 83.0666 96.1108C82.8045 95.8766 82.5949 95.5894 82.4517 95.2683C82.4517 95.2683 82.4517 95.2683 82.4517 95.3421C82.4716 95.4074 82.4963 95.4711 82.5255 95.5328C82.6447 95.7754 82.8073 95.9942 83.0051 96.1785C83.3153 96.462 83.6485 96.7192 84.0014 96.9472C84.467 97.2327 84.874 97.6042 85.2007 98.0419C85.5865 98.581 85.8009 99.224 85.8156 99.8869C85.7689 100.649 85.6306 101.403 85.4036 102.132C85.2993 102.546 85.2517 102.972 85.2622 103.398C85.2715 103.855 85.4078 104.3 85.6557 104.684C85.9426 105.072 86.3594 105.345 86.8304 105.453C87.2887 105.558 87.7563 105.618 88.2264 105.631C88.6804 105.647 89.1307 105.72 89.5671 105.846C89.9822 105.981 90.3697 106.189 90.7109 106.461C91.0295 106.722 91.2902 107.047 91.4765 107.414C91.6629 107.782 91.7707 108.184 91.7933 108.595C91.8487 109.388 91.4366 110.077 91.1783 110.772C91.0575 111.111 91.0011 111.47 91.0123 111.83C91.0256 112.177 91.1606 112.508 91.3936 112.765C91.5924 112.978 91.847 113.131 92.1285 113.207C92.41 113.284 92.7072 113.279 92.9864 113.195C93.1918 113.122 93.3775 113.002 93.529 112.846C93.6805 112.689 93.7937 112.499 93.8597 112.291C93.957 112.036 93.9762 111.758 93.915 111.492C93.8986 111.407 93.8673 111.326 93.8228 111.252Z" fill="#263238"/>
<path d="M134.03 112.851C134.584 113.675 132.862 114.659 132.862 114.659C133.317 114.954 133.059 116.504 132.333 116.639C132.665 116.842 132.893 116.842 133.071 117.193C133.166 117.365 133.219 117.558 133.224 117.755C133.23 117.952 133.188 118.147 133.102 118.324C133.011 118.5 132.864 118.64 132.686 118.725C132.507 118.809 132.305 118.833 132.112 118.792C132.325 119.009 132.467 119.286 132.52 119.585C132.572 119.885 132.533 120.194 132.407 120.471C132.246 120.801 131.968 121.06 131.626 121.196C131.457 121.263 131.278 121.3 131.097 121.307C131.028 121.316 130.957 121.316 130.888 121.307C130.858 121.294 130.83 121.275 130.808 121.252C130.697 121.159 130.605 121.042 130.482 120.956L130.347 120.858C130.128 120.723 129.892 120.617 129.646 120.544C129.527 120.522 129.41 120.491 129.295 120.452C129.231 120.407 129.169 120.357 129.111 120.304C128.672 120.054 128.186 119.899 127.684 119.849C127.134 119.796 126.612 119.582 126.183 119.234C125.976 119.053 125.848 118.798 125.827 118.523C125.805 118.249 125.891 117.977 126.066 117.765C125.892 117.748 125.73 117.668 125.611 117.54C125.492 117.412 125.424 117.244 125.421 117.07C125.422 116.894 125.469 116.723 125.556 116.571C125.644 116.419 125.768 116.292 125.919 116.202C126.22 116.024 126.565 115.93 126.915 115.932C126.716 115.881 126.544 115.754 126.437 115.578C126.33 115.402 126.297 115.191 126.343 114.991C126.398 114.793 126.502 114.613 126.645 114.466C126.788 114.319 126.965 114.21 127.161 114.148C127.56 114.031 127.98 114.004 128.391 114.068C128.803 114.112 130.5 114.271 130.913 114.253L131.214 113.128L131.251 112.986C131.983 112.814 132.192 112.722 132.85 112.611C133.329 112.525 133.803 112.506 134.03 112.851Z" fill="#FFBF9D"/>
<path d="M131.097 122.795C131.076 122.964 131.019 123.127 130.931 123.273C130.843 123.419 130.726 123.546 130.587 123.644C130.103 123.783 129.587 123.77 129.111 123.607L129.265 122.445L129.308 122.162C129.203 121.916 128.693 121.854 128.496 121.713C128.305 121.578 128.175 121.374 128.133 121.144C128.09 120.914 128.139 120.677 128.268 120.483C128.407 120.294 128.596 120.149 128.813 120.064C129.031 119.979 129.269 119.958 129.498 120.003C129.955 120.102 130.358 120.367 130.63 120.747C130.845 121.038 130.997 121.37 131.078 121.722C131.158 122.075 131.165 122.44 131.097 122.795Z" fill="#FFBF9D"/>
<path d="M132.247 118.816C130.229 118.251 128.158 117.897 126.066 117.758C127.066 118.089 128.096 118.32 129.141 118.447C130.162 118.673 131.202 118.797 132.247 118.816Z" fill="#FF9A6C"/>
<path d="M132.425 116.645C131.546 116.269 130.611 116.039 129.658 115.963C128.719 115.781 127.757 115.756 126.811 115.889C127.737 116.075 128.673 116.206 129.615 116.282C130.544 116.458 131.482 116.579 132.425 116.645Z" fill="#FF9A6C"/>
<path d="M132.604 114.524C131.872 114.229 131.093 114.069 130.304 114.05C129.527 113.924 128.737 113.901 127.955 113.982C128.704 114.216 129.482 114.344 130.267 114.364C131.039 114.49 131.822 114.544 132.604 114.524Z" fill="#FF9A6C"/>
<path d="M131.029 122.057C131.066 122.057 131.165 121.86 131.091 121.51C130.974 121.064 130.687 120.682 130.291 120.446C129.915 120.207 129.498 120.04 129.061 119.954C128.674 119.911 128.502 120.157 128.551 120.175C128.6 120.194 128.742 120.089 129.018 120.175C129.395 120.321 129.757 120.5 130.101 120.71C130.439 120.91 130.707 121.208 130.869 121.565C130.986 121.854 130.98 122.051 131.029 122.057Z" fill="#FF9A6C"/>
<path d="M66.2959 121.073C62.7413 124.314 60.3428 125.538 59.8816 128.877C59.5709 131.827 59.8874 134.81 60.8102 137.629C62.7351 143.33 65.1951 150.033 66.6895 153.256C67.2259 154.422 67.322 155.744 66.9601 156.976C66.1237 159.774 63.8852 165.106 64.2296 175.936L97.5004 173.612C97.5004 173.612 91.7134 160.285 90.4404 153.637C90.2866 152.831 91.1722 143.231 90.7478 141.337C89.1304 134.271 81.48 127.272 78.9647 123.502L78.6756 122.272L66.5235 120.243L66.2959 121.073Z" fill="#455A64"/>
<g opacity="0.3">
<path d="M66.179 149.781C66.179 149.781 70.3055 158.391 72.3596 159.196C74.4136 160.002 91.5103 157.671 91.5103 157.671L90.471 153.637L66.179 149.781Z" fill="black"/>
</g>
<path d="M81.1111 126.264C81.3184 126.405 81.5083 126.57 81.6769 126.756C82.0213 127.094 82.501 127.604 83.0544 128.269C84.1799 129.585 85.5144 131.565 87.0519 133.687C88.4082 135.493 89.4881 137.491 90.256 139.615C90.4777 140.264 90.6524 140.928 90.7787 141.602C90.8355 141.845 90.8624 142.095 90.8586 142.346C90.8033 142.346 90.6496 141.294 90.0407 139.695C89.2209 137.619 88.129 135.66 86.7936 133.871C85.25 131.743 83.9462 129.757 82.8761 128.41C82.3534 127.734 81.9044 127.18 81.5846 126.842C81.4078 126.666 81.2491 126.472 81.1111 126.264Z" fill="#263238"/>
<path d="M61.9908 124.88C61.9908 124.88 54.7954 129.701 59.1249 138.121C62.9748 145.605 69.223 154.793 71.7445 156.238C74.2659 157.683 101.473 151.81 101.473 151.81L100.624 141.288L77.2548 146.208L70.5391 133.656C70.5391 133.656 67.8947 123.066 61.9908 124.88Z" fill="#455A64"/>
<path d="M100.735 142.77C100.735 142.77 101.006 141.645 103.011 140.31C104.221 139.549 105.216 138.49 105.901 137.235C106.301 136.62 106.86 135.538 107.42 135.845C107.98 136.153 107.881 137.008 107.5 138.354C107.119 139.701 105.981 140.814 106.424 141.331C106.867 141.848 113.029 141.183 114.818 140.82C116.608 140.458 117.45 140.618 117.192 141.503C116.934 142.389 111.35 142.598 110.95 143.434C110.55 144.271 111.19 144.086 111.805 144.32C112.42 144.553 118.447 143.902 118.57 144.996C118.693 146.091 117.955 146.165 117.955 146.165C117.955 146.165 118.139 147.462 117.161 147.831C116.184 148.2 110.071 147.462 110.274 148.231C110.477 149 115.193 149.387 115.341 150.593C115.489 151.798 114.314 151.337 113.084 151.078C111.184 150.603 109.245 150.301 107.291 150.174C105.249 150.144 101.338 149.812 101.338 149.812L100.735 142.77Z" fill="#FFBF9D"/>
<path d="M118.035 146.294C116.678 146.401 115.314 146.401 113.957 146.294C112.596 146.283 111.237 146.168 109.892 145.949C111.249 145.843 112.613 145.843 113.97 145.949C115.332 145.961 116.69 146.076 118.035 146.294Z" fill="#078E85"/>
<path d="M75.5208 149.781C75.4795 149.108 75.6564 148.439 76.0251 147.874C76.2985 147.257 76.7675 146.747 77.3596 146.423C77.4211 146.491 76.8061 147.106 76.308 148.028C75.8098 148.951 75.6376 149.793 75.5208 149.781Z" fill="#263238"/>
<path d="M69.1247 131.221C69.1883 131.299 69.2478 131.382 69.3031 131.467C69.4138 131.633 69.5675 131.891 69.7643 132.223C70.1641 132.893 70.7298 133.896 71.4494 135.187C72.8762 137.77 74.9241 141.503 77.3594 146.159L77.2241 146.097L100.594 141.134L100.772 141.097V141.276C101.049 144.652 101.332 148.151 101.621 151.73V151.78V151.921L101.485 151.952C94.536 153.44 87.9003 154.744 81.8058 155.703C80.2868 155.943 78.7985 156.152 77.3533 156.318C75.9437 156.497 74.5245 156.589 73.1037 156.595C72.7569 156.585 72.4114 156.548 72.0705 156.484C71.8939 156.446 71.7253 156.378 71.5724 156.281L71.2157 156.005C70.9464 155.81 70.6952 155.592 70.4654 155.353C70.228 155.133 70.0041 154.899 69.7951 154.652C69.3707 154.178 68.9587 153.704 68.5958 153.212C68.233 152.72 67.864 152.253 67.5258 151.78C64.8383 147.973 62.981 144.689 61.6834 142.438C61.0684 141.306 60.5579 140.421 60.2381 139.812C60.0844 139.523 59.9676 139.289 59.8815 139.123C59.8377 139.046 59.8007 138.966 59.7708 138.883C59.8197 138.955 59.8649 139.029 59.9061 139.105L60.2935 139.781L61.7941 142.376C63.1163 144.609 65.0043 147.874 67.7102 151.65C68.0485 152.118 68.399 152.598 68.7803 153.065C69.1616 153.532 69.5552 154.018 69.9734 154.486C70.1822 154.725 70.4039 154.953 70.6376 155.168C70.8618 155.396 71.1068 155.602 71.3694 155.783L71.7569 156.072C71.8172 156.118 71.8863 156.152 71.9598 156.171C72.0302 156.203 72.1047 156.226 72.1812 156.238C72.506 156.299 72.835 156.334 73.1652 156.343C74.57 156.33 75.9728 156.232 77.3656 156.048C78.8108 155.875 80.2929 155.66 81.8119 155.433C87.8757 154.461 94.5114 153.145 101.448 151.657L101.325 151.829V151.773C101.036 148.182 100.754 144.683 100.483 141.319L100.674 141.46L77.3041 146.349H77.218L77.1749 146.263C74.7765 141.608 72.7532 137.85 71.3633 135.249C70.6622 133.963 70.1333 132.955 69.7397 132.26L69.3031 131.485L69.1247 131.221Z" fill="#263238"/>
</svg>
