<svg width="11" height="24" viewBox="0 0 11 24" fill="none" xmlns="http://www.w3.org/2000/svg">
<path d="M0.769247 23.9957C0.154256 23.3712 -0.0336581 22.6288 0.00477887 21.7422C0.0688404 20.1788 0.0304032 18.6066 0.0218617 17.0387C0.0133202 15.912 0.513001 15.3355 1.64903 15.3399C4.13461 15.353 6.6202 15.3311 9.11006 15.3486C10.4468 15.3573 10.9593 15.8814 10.9764 17.2353C10.9935 18.8031 10.938 20.3709 10.9977 21.9388C11.0319 22.8603 10.6774 23.4935 9.98557 24.0001C6.91062 23.9957 3.83993 23.9957 0.769247 23.9957Z" fill="#FAFAFA"/>
<path d="M1.48678 11.2785C1.48678 10.0513 1.49959 8.82409 1.48251 7.5969C1.4697 6.90688 1.74303 6.61427 2.43916 6.62737C4.38236 6.65358 6.32984 6.64047 8.27304 6.63611C9.02042 6.63611 9.44323 6.99422 9.4475 7.77159C9.45604 10.226 9.43469 12.6804 9.46458 15.1304C9.47312 15.7287 9.23396 15.816 8.73428 15.8073C6.54337 15.7855 4.3482 15.7811 2.15729 15.8117C1.59355 15.8204 1.46116 15.6239 1.47397 15.0867C1.50386 13.8158 1.48251 12.5493 1.48678 11.2785Z" fill="#FAFAFA"/>
<path d="M5.43721 5.60906C5.02294 5.60906 4.60014 5.66583 4.19441 5.59596C3.63494 5.49988 2.72954 5.98464 2.58433 5.27715C2.40923 4.41244 2.23413 3.40797 3.05839 2.5651C4.30118 1.29423 5.69346 0.37711 7.42312 0.0364651C8.11498 -0.0989193 8.52498 0.128177 8.49935 0.96232C8.46091 2.27686 8.46519 3.5914 8.49935 4.90594C8.51643 5.46057 8.35415 5.65273 7.80322 5.62216C7.01312 5.57849 6.22303 5.60906 5.43721 5.60906Z" fill="#FAFAFA"/>
</svg>
