<svg width="80" height="80" viewBox="0 0 80 80" fill="none" xmlns="http://www.w3.org/2000/svg">
<path d="M40 0C17.9006 0 0 17.9006 0 40C0 62.0994 17.9179 80 40 80C62.0821 80 80 62.0994 80 40C80 17.9006 62.0993 0 40 0ZM45.3736 60.1469C45.3736 61.9093 43.9395 63.3434 42.1771 63.3434H37.8056C36.0432 63.3434 34.6091 61.9093 34.6091 60.1469V55.7754C34.6091 54.013 36.0432 52.5788 37.8056 52.5788H42.1771C43.9395 52.5788 45.3736 54.013 45.3736 55.7754V60.1469ZM45.3736 45.7019C45.3736 47.2225 44.1469 48.4492 42.6264 48.4492H37.3736C35.8531 48.4492 34.6264 47.2225 34.6264 45.7019V19.4039C34.6264 17.8834 35.8531 16.6566 37.3736 16.6566H42.6264C44.1469 16.6566 45.3736 17.8834 45.3736 19.4039V45.7019Z" fill="#EDBB46"/>
</svg>
