<svg width="54" height="56" viewBox="0 0 54 56" fill="none" xmlns="http://www.w3.org/2000/svg">
<path d="M27 27.3171C30.9389 27.3171 34.7164 25.8781 37.5016 23.3166C40.2868 20.7551 41.8515 17.281 41.8515 13.6585C41.8515 10.0361 40.2868 6.56197 37.5016 4.00049C34.7164 1.43902 30.9389 0 27 0C23.0611 0 19.2836 1.43902 16.4984 4.00049C13.7132 6.56197 12.1485 10.0361 12.1485 13.6585C12.1485 17.281 13.7132 20.7551 16.4984 23.3166C19.2836 25.8781 23.0611 27.3171 27 27.3171ZM27 34.1463C12.1188 34.1463 0 43.3249 0 54.6341C0 55.399 0.653465 56 1.48515 56H52.5149C53.3465 56 54 55.399 54 54.6341C54 43.3249 41.8812 34.1463 27 34.1463Z" fill="#535971"/>
</svg>
