<svg width="80" height="80" viewBox="0 0 80 80" fill="none" xmlns="http://www.w3.org/2000/svg">
<path d="M56.7883 0H23.2516C8.68433 0 0 8.68 0 23.24V56.72C0 71.32 8.68433 80 23.2516 80H56.7483C71.3155 80 79.9999 71.32 79.9999 56.76V23.24C80.0399 8.68 71.3556 0 56.7883 0ZM26.013 17.52C30.135 17.52 33.5367 20.88 33.5367 25.04C33.5367 29.2 30.175 32.56 26.013 32.56C21.8509 32.56 18.4892 29.12 18.4892 25C18.4892 20.88 21.8909 17.52 26.013 17.52ZM40.0199 68.32C29.2546 68.32 20.4902 59.56 20.4902 48.8C20.4902 46 22.7713 43.68 25.5727 43.68H54.3871C57.1885 43.68 59.4696 45.96 59.4696 48.8C59.5497 59.56 50.7853 68.32 40.0199 68.32ZM54.0269 32.48C49.9049 32.48 46.5032 29.12 46.5032 24.96C46.5032 20.8 49.8648 17.44 54.0269 17.44C58.189 17.44 61.5507 20.8 61.5507 24.96C61.5507 29.12 58.149 32.48 54.0269 32.48Z" fill="#09BEB2"/>
</svg>
