<svg width="90" height="90" viewBox="0 0 90 90" fill="none" xmlns="http://www.w3.org/2000/svg">
<path d="M45 0C20.1382 0 0 20.1382 0 45C0 69.8618 20.1577 90 45 90C69.8423 90 90 69.8618 90 45C90 20.1382 69.8618 0 45 0ZM51.0454 67.6652C51.0454 69.6479 49.432 71.2613 47.4492 71.2613H42.5313C40.5486 71.2613 38.9352 69.6479 38.9352 67.6652V62.7473C38.9352 60.7646 40.5486 59.1512 42.5313 59.1512H47.4492C49.432 59.1512 51.0454 60.7646 51.0454 62.7473V67.6652ZM51.0454 51.4147C51.0454 53.1253 49.6652 54.5054 47.9546 54.5054H42.0454C40.3348 54.5054 38.9546 53.1253 38.9546 51.4147V21.8294C38.9546 20.1188 40.3348 18.7387 42.0454 18.7387H47.9546C49.6652 18.7387 51.0454 20.1188 51.0454 21.8294V51.4147Z" fill="#E04841"/>
</svg>
