<svg width="15" height="24" viewBox="0 0 15 24" fill="none" xmlns="http://www.w3.org/2000/svg">
<path d="M5.1787 7.46973H9.85199C10.9117 7.46973 11.8605 8.13311 12.2507 9.14182L14.8179 15.7938C15.0041 16.2755 15.0485 16.798 14.9465 17.3024L14.0154 21.8961C13.7671 23.1229 12.7118 23.9998 11.4925 23.9998H3.79976C2.63366 23.9998 1.61387 23.1956 1.30793 22.0415L0.088617 17.3796C-0.0577006 16.8253 -0.0222296 16.2391 0.190596 15.703L2.78884 9.1191C3.17902 8.12402 4.12787 7.46973 5.1787 7.46973Z" fill="#FAFAFA"/>
<path d="M7.14735 12.627C7.14735 11.691 7.14291 10.7549 7.14735 9.81439C7.14735 9.45089 7.0631 9.06467 7.65281 9.06013C8.15827 9.05559 8.26025 9.2646 8.25582 9.72352C8.23808 11.7364 8.24251 13.7538 8.25582 15.7667C8.26025 16.1983 8.20704 16.4573 7.67498 16.4528C7.09858 16.4482 7.14735 16.0938 7.14735 15.7167C7.15178 14.6898 7.14735 13.6584 7.14735 12.627Z" fill="#078E85"/>
<path d="M9.55474 6.44756H5.84803C4.98343 6.44756 4.27844 5.72965 4.27844 4.83908V1.60848C4.27844 0.722453 4.97899 0 5.84803 0H9.55474C10.4193 0 11.1243 0.71791 11.1243 1.60848V4.83908C11.1243 5.7251 10.4238 6.44756 9.55474 6.44756Z" fill="#FAFAFA"/>
<path d="M7.57741 16.8345H7.7991C8.16268 16.8345 8.47748 17.0935 8.55729 17.4615L8.87209 18.9519C8.97407 19.4471 8.6105 19.9106 8.1139 19.9106H7.29807C6.81035 19.9106 6.44677 19.4562 6.53988 18.9655L6.81921 17.4751C6.89016 17.1026 7.20496 16.8345 7.57741 16.8345Z" fill="#078E85"/>
</svg>
