<svg width="23" height="24" viewBox="0 0 23 24" fill="none" xmlns="http://www.w3.org/2000/svg">
<path d="M22.2669 11.825C21.2446 10.0684 20.0179 8.46031 19.6558 6.29636C19.3918 4.71371 18.3567 3.25411 16.9596 2.16789C13.9696 -0.148802 10.5109 -0.348225 7.09062 0.364604C0.48003 1.74359 -1.69226 9.60168 1.35321 14.3709C3.06975 17.0567 4.13034 19.7807 3.88329 22.9503C3.81088 23.8498 4.16015 23.994 4.9524 23.9643C6.49856 23.9049 8.04472 23.9474 9.59089 23.9474C11.0007 23.9474 12.4234 23.8371 13.8205 23.9771C15.192 24.1171 15.5711 23.6207 15.3879 22.352C15.3155 21.8428 15.1068 21.113 16.1418 21.2064C18.6208 21.4355 21.0146 19.4285 20.8229 16.3439C20.7761 15.6098 20.9592 15.1473 21.6791 14.7315C23.3615 13.7641 23.2976 13.5901 22.2669 11.825ZM9.72293 14.7188C7.38026 14.8461 4.6372 12.1942 4.99499 9.69927C4.78628 7.37409 7.12043 4.77311 9.65478 4.92586C13.1475 5.13377 14.7703 6.97949 14.7405 9.85202C14.7064 12.6397 12.8365 14.5491 9.72293 14.7188Z" fill="#FAFAFA"/>
<path d="M12.7684 7.91703C12.5639 7.51819 12.1933 7.22966 11.7589 7.12359C11.4096 7.03872 11.039 7.10237 10.7366 7.30179L9.8464 7.98068L8.95619 7.30179C8.65377 7.10661 8.28746 7.04297 7.93393 7.12359C7.49521 7.22966 7.12891 7.51819 6.92445 7.91703C6.74556 8.26496 6.67315 8.65108 6.71574 9.03719L6.7413 9.26207C6.77963 9.61425 6.91168 9.94945 7.12891 10.2337L7.41854 10.6198C7.96801 11.3454 8.64951 11.9564 9.43324 12.4189L9.84214 12.6607L10.251 12.4189C11.0348 11.9564 11.7205 11.3454 12.2657 10.6198L12.5554 10.2337C12.7684 9.94945 12.9004 9.61425 12.943 9.26207L12.9685 9.03719C13.0154 8.65108 12.9472 8.26072 12.7684 7.91703Z" fill="#FAFAFA"/>
</svg>
