<svg width="21" height="24" viewBox="0 0 21 24" fill="none" xmlns="http://www.w3.org/2000/svg">
<path d="M16.3212 0H4.66667C2.09154 0 0 2.08733 0 4.63051V21.5331C0 23.6924 1.55959 24.6041 3.46978 23.5604L9.3696 20.3094C9.99827 19.9616 11.0138 19.9616 11.6304 20.3094L17.5302 23.5604C19.4404 24.6161 21 23.7044 21 21.5331V4.63051C20.9879 2.08733 18.8964 0 16.3212 0ZM13.5164 11.2764H11.4007V13.4477C11.4007 13.9395 10.9896 14.3474 10.494 14.3474C9.99827 14.3474 9.58722 13.9395 9.58722 13.4477V11.2764H7.4715C6.97582 11.2764 6.56477 10.8685 6.56477 10.3767C6.56477 9.88481 6.97582 9.47694 7.4715 9.47694H9.58722V7.4496C9.58722 6.95775 9.99827 6.54989 10.494 6.54989C10.9896 6.54989 11.4007 6.95775 11.4007 7.4496V9.47694H13.5164C14.0121 9.47694 14.4231 9.88481 14.4231 10.3767C14.4231 10.8685 14.0121 11.2764 13.5164 11.2764Z" fill="#FAFAFA"/>
</svg>
