<svg width="29" height="24" viewBox="0 0 29 24" fill="none" xmlns="http://www.w3.org/2000/svg">
<path d="M3.69114 14.501C5.74764 15.5115 7.77777 15.9915 10.0188 15.3599C10.6252 15.2083 10.8098 15.4862 10.5989 16.0926C10.2561 17.0526 9.93972 18.0126 9.75517 18.9978C9.59697 19.9073 9.43878 20.8168 10.0452 21.7262C10.757 22.8378 10.1506 23.7726 8.70055 23.9494C7.43502 24.101 6.19585 23.8736 5.00941 23.5452C3.24293 23.0399 2.61016 21.9283 2.84745 20.0841C3.03201 18.2399 3.37475 16.3957 3.69114 14.501Z" fill="#FAFAFA"/>
<path d="M22.3578 3.00632L9.83427 0.277895C9.83427 0.277895 9.83427 0.277895 9.86064 0.303158C9.17514 0.101053 8.43691 0 7.67231 0C3.42749 0 0 3.30947 0 7.42737C0 11.5453 3.42749 14.8547 7.67231 14.8547C8.54237 14.8547 9.3597 14.7284 10.1243 14.4758C10.177 14.4505 10.2034 14.4505 10.2561 14.4505L22.3578 11.7979C22.9378 11.6716 23.3597 11.1663 23.3597 10.5853V4.21895C23.3861 3.6379 22.9642 3.13263 22.3578 3.00632ZM8.30508 11.1158C6.06403 11.1158 4.27119 9.37263 4.27119 7.25053C4.27119 5.10316 6.09039 3.38526 8.30508 3.38526C10.5198 3.38526 12.339 5.12842 12.339 7.25053C12.339 9.3979 10.5461 11.1158 8.30508 11.1158Z" fill="#FAFAFA"/>
<path d="M8.30501 9.4988C9.59691 9.4988 10.6515 8.48827 10.6515 7.25037C10.6515 6.01248 9.59691 5.00195 8.30501 5.00195C7.01311 5.00195 5.9585 6.01248 5.9585 7.25037C5.98486 8.48827 7.01311 9.4988 8.30501 9.4988Z" fill="#FAFAFA"/>
<path d="M26.8135 5.35573C26.3917 5.25468 26.0489 4.87573 25.6535 4.67362C25.2316 4.47152 24.7043 4.47152 24.2825 4.72415V5.33046C24.7043 5.07783 25.2053 5.07783 25.6535 5.27994C26.0489 5.48204 26.3917 5.86099 26.8135 5.96204C27.2354 6.0631 27.6572 5.83573 28 5.53257V4.92625C27.6572 5.20415 27.2354 5.43152 26.8135 5.35573Z" fill="#FAFAFA" stroke="#FAFAFA" stroke-width="0.9287" stroke-miterlimit="10" stroke-linecap="round" stroke-linejoin="round"/>
<path d="M26.8135 7.8318C26.3917 7.73075 26.0489 7.3518 25.6535 7.1497C25.2316 6.94759 24.7043 6.94759 24.2825 7.20022V7.80654C24.7043 7.55391 25.2053 7.55391 25.6535 7.75601C26.0489 7.95812 26.3917 8.33707 26.8135 8.43812C27.2354 8.53917 27.6572 8.3118 28 8.00864V7.40233C27.6572 7.68022 27.2354 7.90759 26.8135 7.8318Z" fill="#FAFAFA" stroke="#FAFAFA" stroke-width="0.9287" stroke-miterlimit="10" stroke-linecap="round" stroke-linejoin="round"/>
<path d="M26.8135 10.282C26.3917 10.1809 26.0489 9.802 25.6535 9.59989C25.2316 9.39779 24.7043 9.39779 24.2825 9.65042V10.2567C24.7043 10.0041 25.2053 10.0041 25.6535 10.2062C26.0489 10.4083 26.3917 10.7873 26.8135 10.8883C27.2354 10.9894 27.6572 10.762 28 10.4588V9.85252C27.6572 10.1557 27.2354 10.3831 26.8135 10.282Z" fill="#FAFAFA" stroke="#FAFAFA" stroke-width="0.9287" stroke-miterlimit="10" stroke-linecap="round" stroke-linejoin="round"/>
</svg>
