<svg width="24" height="24" viewBox="0 0 24 24" fill="none" xmlns="http://www.w3.org/2000/svg">
<path d="M19.08 15.72C18.49 12.19 15.1 9.32 11.52 9.32C7.63 9.32 4.21 12.47 3.88 16.35C3.75 17.85 4.23 19.27 5.22 20.34C6.2 21.41 7.58 22 9.08 22H13.76C15.45 22 16.93 21.34 17.94 20.15C18.95 18.96 19.35 17.38 19.08 15.72ZM10.28 7.86C11.0571 7.86 11.8023 7.5513 12.3518 7.00182C12.9013 6.45234 13.21 5.70708 13.21 4.93C13.21 4.15292 12.9013 3.40766 12.3518 2.85818C11.8023 2.3087 11.0571 2 10.28 2C9.50292 2 8.75766 2.3087 8.20818 2.85818C7.6587 3.40766 7.35 4.15292 7.35 4.93C7.35 5.70708 7.6587 6.45234 8.20818 7.00182C8.75766 7.5513 9.50292 7.86 10.28 7.86ZM16.94 9.028C17.5871 9.028 18.2078 8.77093 18.6653 8.31334C19.1229 7.85575 19.38 7.23513 19.38 6.588C19.38 5.94087 19.1229 5.32025 18.6653 4.86266C18.2078 4.40507 17.5871 4.148 16.94 4.148C16.2929 4.148 15.6722 4.40507 15.2147 4.86266C14.7571 5.32025 14.5 5.94087 14.5 6.588C14.5 7.23513 14.7571 7.85575 15.2147 8.31334C15.6722 8.77093 16.2929 9.028 16.94 9.028ZM20.55 12.931C20.8061 12.931 21.0596 12.8806 21.2962 12.7826C21.5328 12.6846 21.7478 12.5409 21.9289 12.3599C22.1099 12.1788 22.2536 11.9638 22.3516 11.7272C22.4496 11.4906 22.5 11.2371 22.5 10.981C22.5 10.7249 22.4496 10.4714 22.3516 10.2348C22.2536 9.99818 22.1099 9.78322 21.9289 9.60214C21.7478 9.42107 21.5328 9.27743 21.2962 9.17943C21.0596 9.08144 20.8061 9.031 20.55 9.031C20.0328 9.031 19.5368 9.23645 19.1711 9.60214C18.8054 9.96784 18.6 10.4638 18.6 10.981C18.6 11.4982 18.8054 11.9942 19.1711 12.3599C19.5368 12.7256 20.0328 12.931 20.55 12.931ZM3.94 10.982C4.26043 10.982 4.57771 10.9189 4.87375 10.7963C5.16978 10.6736 5.43877 10.4939 5.66534 10.2673C5.89192 10.0408 6.07164 9.77178 6.19427 9.47575C6.31689 9.17971 6.38 8.86243 6.38 8.542C6.38 8.22157 6.31689 7.90429 6.19427 7.60825C6.07164 7.31222 5.89192 7.04323 5.66534 6.81666C5.43877 6.59008 5.16978 6.41036 4.87375 6.28773C4.57771 6.16511 4.26043 6.102 3.94 6.102C3.29287 6.102 2.67225 6.35907 2.21466 6.81666C1.75707 7.27425 1.5 7.89487 1.5 8.542C1.5 9.18913 1.75707 9.80975 2.21466 10.2673C2.67225 10.7249 3.29287 10.982 3.94 10.982Z" fill="#F8F8F8"/>
</svg>
