<svg width="24" height="24" viewBox="0 0 24 24" fill="none" xmlns="http://www.w3.org/2000/svg">
<path d="M19.4457 0H4.55431C2.03829 0 0 2.04246 0 4.558V19.442C0 21.9575 2.03829 24 4.55431 24H19.4411C21.9571 24 24 21.9575 24 19.442V4.558C24.0045 2.04246 21.9617 0 19.4457 0ZM20.6696 6.98711L20.6286 7.35557C20.5649 7.93328 20.3465 8.4837 19.9962 8.95224L19.5185 9.58453C18.6222 10.7763 17.4984 11.7817 16.2153 12.5413L15.5465 12.9371L14.8777 12.5413C13.5947 11.7817 12.4709 10.7763 11.5746 9.58453L11.0969 8.95224C10.7465 8.48825 10.5281 7.93783 10.4645 7.35557L10.4235 6.98711C10.3553 6.35027 10.4736 5.71342 10.7602 5.14481C11.0969 4.48977 11.6974 4.01213 12.4163 3.84382C12.9896 3.70735 13.5947 3.81198 14.0861 4.13495L15.542 5.25398L16.9979 4.13495C17.4893 3.81198 18.0944 3.70735 18.6677 3.84382C19.382 4.01668 19.9871 4.48977 20.3238 5.14481C20.6241 5.70887 20.7424 6.35027 20.6696 6.98711Z" fill="#FAFAFA"/>
</svg>
