<svg width="24" height="24" viewBox="0 0 24 24" fill="none" xmlns="http://www.w3.org/2000/svg">
<path d="M5.5 10C5.95963 10 6.41475 9.90947 6.83939 9.73358C7.26403 9.55769 7.64987 9.29988 7.97487 8.97487C8.29988 8.64987 8.55769 8.26403 8.73358 7.83939C8.90947 7.41475 9 6.95963 9 6.5C9 6.04037 8.90947 5.58525 8.73358 5.16061C8.55769 4.73597 8.29988 4.35013 7.97487 4.02513C7.64987 3.70012 7.26403 3.44231 6.83939 3.26642C6.41475 3.09053 5.95963 3 5.5 3C4.57174 3 3.6815 3.36875 3.02513 4.02513C2.36875 4.6815 2 5.57174 2 6.5C2 7.42826 2.36875 8.3185 3.02513 8.97487C3.6815 9.63125 4.57174 10 5.5 10ZM5.5 21C6.42826 21 7.3185 20.6313 7.97487 19.9749C8.63125 19.3185 9 18.4283 9 17.5C9 16.5717 8.63125 15.6815 7.97487 15.0251C7.3185 14.3687 6.42826 14 5.5 14C4.57174 14 3.6815 14.3687 3.02513 15.0251C2.36875 15.6815 2 16.5717 2 17.5C2 18.4283 2.36875 19.3185 3.02513 19.9749C3.6815 20.6313 4.57174 21 5.5 21Z" fill="#F8F8F8"/>
<path d="M15.25 11.98L22.45 6.6C22.6091 6.48066 22.7143 6.30298 22.7425 6.10607C22.7706 5.90916 22.7193 5.70913 22.6 5.55C22.4806 5.39087 22.303 5.28567 22.1061 5.25754C21.9091 5.22941 21.7091 5.28066 21.55 5.4L14 11.05L8.44999 6.89C8.28995 6.77321 8.09063 6.72353 7.8945 6.75155C7.69836 6.77957 7.52093 6.88307 7.39999 7.04C7.14999 7.37 7.21999 7.84 7.54999 8.09L12.75 11.98L6.84999 16.4C6.69086 16.5193 6.58566 16.697 6.55753 16.8939C6.5294 17.0909 6.58064 17.2909 6.69999 17.45C6.81934 17.6091 6.99701 17.7143 7.19392 17.7425C7.39084 17.7706 7.59086 17.7194 7.74999 17.6L14 12.92L21.55 18.57C21.68 18.67 21.84 18.72 22 18.72C22.1574 18.72 22.3108 18.6705 22.4385 18.5784C22.5662 18.4864 22.6617 18.3565 22.7115 18.2072C22.7613 18.0578 22.7628 17.8966 22.7159 17.7464C22.6689 17.5961 22.5759 17.4645 22.45 17.37L15.25 11.98Z" fill="#F8F8F8"/>
</svg>
