<svg width="70" height="80" viewBox="0 0 70 80" fill="none" xmlns="http://www.w3.org/2000/svg">
<path d="M54.4041 0H15.5556C7.01209 0 0 6.95776 0 15.435V71.7768C0 78.9745 5.19862 82.0135 11.5659 78.5347L31.232 67.6982C33.3276 66.5385 36.7127 66.5385 38.768 67.6982L58.4341 78.5347C64.8014 82.0535 70 79.0145 70 71.7768V15.435C69.9597 6.95776 62.9879 0 54.4041 0ZM49.5682 28.4708L33.4485 44.4656C32.844 45.0655 32.0783 45.3454 31.3126 45.3454C30.5469 45.3454 29.7812 45.0655 29.1767 44.4656L23.1318 38.4676C22.5697 37.9032 22.2545 37.1417 22.2545 36.3483C22.2545 35.5548 22.5697 34.7933 23.1318 34.229C24.3005 33.0693 26.2349 33.0693 27.4036 34.229L31.3126 38.1077L45.2965 24.2322C46.4652 23.0726 48.3995 23.0726 49.5682 24.2322C50.7369 25.3918 50.7369 27.3112 49.5682 28.4708Z" fill="#09BEB2"/>
</svg>
