<svg width="26" height="24" viewBox="0 0 26 24" fill="none" xmlns="http://www.w3.org/2000/svg">
<path d="M22.2109 0.553574C20.8653 1.77767 19.6287 2.90121 18.3922 4.02913C17.4588 4.88162 17.8568 6.38114 19.0128 7.0369C20.1925 7.70578 21.0075 7.55277 21.8792 6.59535C22.7557 5.63356 23.8075 4.8073 24.7503 3.89797C25.281 3.38211 25.4942 3.60507 25.6553 4.14716C26.3044 6.31556 26.1006 8.36592 24.4945 10.1409C22.7178 12.1038 20.3299 12.8382 17.6578 12.3573C16.7718 12.1956 16.3691 12.4185 15.8764 12.8776C12.2756 16.2045 8.67961 19.5314 5.06938 22.8539C3.82807 23.995 2.45409 24.2966 1.35492 23.7021C-0.393346 22.7534 -0.464413 20.6549 1.22699 19.0855C4.71878 15.846 8.22951 12.6196 11.7355 9.38891C12.3467 8.82495 12.7873 8.40526 12.5552 7.35167C11.9298 4.47067 13.4174 1.93068 16.118 0.623522C18.0416 -0.312035 20.0125 -0.0759599 22.2109 0.553574Z" fill="#FAFAFA"/>
</svg>
