<svg width="26" height="24" viewBox="0 0 26 24" fill="none" xmlns="http://www.w3.org/2000/svg">
<path d="M21.6539 17.7137C20.8417 15.4257 19.2453 13.554 17.8683 11.5525C16.1179 9.0003 10.8012 8.27045 8.48122 10.8361C6.78212 12.7122 5.50312 14.8033 4.30815 16.9436C3.80868 17.8436 3.48193 18.9585 3.74333 20.0734C4.23346 22.1869 5.5498 23.5212 7.7717 24.0003C11.1186 23.8794 14.4608 23.8794 17.8076 24.0003C21.0705 23.2705 22.7089 20.6869 21.6539 17.7137ZM16.2812 17.1899C16.2812 17.454 16.0618 17.6645 15.7864 17.6645H14.4001C14.1247 17.6645 13.9053 17.8749 13.9053 18.1391V19.469C13.9053 19.7331 13.6859 19.9436 13.4105 19.9436H12.2202C11.9448 19.9436 11.7254 19.7331 11.7254 19.469V18.1391C11.7254 17.8749 11.506 17.6645 11.2306 17.6645H9.84424C9.56883 17.6645 9.34944 17.454 9.34944 17.1899V16.0481C9.34944 15.7839 9.56883 15.5734 9.84424 15.5734H11.2259C11.5013 15.5734 11.7207 15.363 11.7207 15.0988V13.769C11.7207 13.5048 11.9401 13.2943 12.2155 13.2943H13.4058C13.6812 13.2943 13.9006 13.5048 13.9006 13.769V15.0988C13.9006 15.363 14.12 15.5734 14.3954 15.5734H15.7818C16.0572 15.5734 16.2766 15.7839 16.2766 16.0481V17.1899H16.2812Z" fill="#FAFAFA"/>
<path d="M9.19094 7.96119C11.0033 7.96119 12.4724 6.17902 12.4724 3.9806C12.4724 1.78217 11.0033 0 9.19094 0C7.37861 0 5.90942 1.78217 5.90942 3.9806C5.90942 6.17902 7.37861 7.96119 9.19094 7.96119Z" fill="#FAFAFA"/>
<path d="M16.7996 7.97487C18.6119 7.97487 20.0811 6.19269 20.0811 3.99427C20.0811 1.79585 18.6119 0.0136719 16.7996 0.0136719C14.9872 0.0136719 13.5181 1.79585 13.5181 3.99427C13.5181 6.19269 14.9872 7.97487 16.7996 7.97487Z" fill="#FAFAFA"/>
<path d="M22.7185 13.5803C24.5309 13.5803 26 11.7982 26 9.59974C26 7.40131 24.5309 5.61914 22.7185 5.61914C20.9062 5.61914 19.437 7.40131 19.437 9.59974C19.437 11.7982 20.9062 13.5803 22.7185 13.5803Z" fill="#FAFAFA"/>
<path d="M3.28151 13.5808C5.09384 13.5808 6.56302 11.7986 6.56302 9.60023C6.56302 7.4018 5.09384 5.61963 3.28151 5.61963C1.46918 5.61963 0 7.4018 0 9.60023C0 11.7986 1.46918 13.5808 3.28151 13.5808Z" fill="#FAFAFA"/>
</svg>
